<svg width="590" height="216" viewBox="0 0 590 216" version="1.1" xmlns="http://www.w3.org/2000/svg" xmlns:xlink="http://www.w3.org/1999/xlink">
<title>Vector</title>
<desc>Created using Figma</desc>
<g id="Canvas" transform="translate(692 91)">
<g id="Vector">
<use xlink:href="#path0_fill" transform="matrix(0.992615 -0.12131 0.121241 0.992623 -701.57 -36.8093)" fill="#000000" fill-opacity="0.99"/>
</g>
</g>
<defs>
<path id="path0_fill" fill-rule="evenodd" d="M 262.222 1.93357L 262.599 2.18465C 262.222 2.68679 261.72 3.06341 261.595 3.94217C 259.712 2.56126 256.575 8.21043 260.591 8.33596C 260.842 9.84241 261.846 10.5956 262.724 11.4744L 262.473 11.5999L 262.599 11.9765C 262.975 12.9808 263.854 12.1021 264.23 12.6042C 264.356 12.9808 263.979 14.1107 264.481 14.1107L 264.356 14.3617L 264.481 14.6128C 264.23 14.9894 263.352 14.7384 263.101 15.2405C 264.105 16.3703 262.599 15.8682 263.101 16.747C 263.728 16.2448 264.105 16.998 264.983 17.3746C 267.368 16.4959 269.125 17.1236 272.137 17.3746C 271.259 15.4916 268.623 14.7384 266.991 14.7384L 267.117 14.3617L 266.74 14.4873C 265.485 13.2319 267.493 13.3574 267.87 12.4787L 268.246 12.3532L 268.121 11.9765C 268.874 11.9765 269.752 11.9765 270.505 11.9765C 270.38 11.5999 270.255 11.3489 269.753 11.3489L 269.878 11.0978L 269.753 10.8467C 269.878 10.3446 270.38 10.3446 270.254 9.34026C 271.384 8.83811 271.008 9.59133 272.137 9.59133L 272.012 10.0935L 272.388 10.4701C 272.137 10.8467 271.761 11.0978 271.384 11.3489C 272.765 12.7298 274.396 11.851 275.651 12.8553C 276.028 13.1064 275.777 14.2362 276.781 14.3617C 277.659 12.4787 275.4 11.851 274.647 10.8467C 274.647 10.219 274.898 9.96795 275.4 9.96795C 275.149 9.08919 274.647 8.4615 275.149 7.33167C 274.396 6.20183 272.89 7.08059 272.765 4.69539C 272.639 4.69539 272.639 4.69539 272.514 4.69539L 272.639 4.31878L 272.514 3.69109C 272.263 3.31448 272.263 2.68679 272.263 1.93357C 273.016 1.30589 274.02 0.803738 274.898 0.176052C 277.408 2.81233 282.303 1.43142 284.813 1.6825C 285.064 2.31018 285.566 2.56126 285.566 3.44002L 285.189 3.56555L 285.315 3.94217C 284.938 4.19324 284.813 4.69539 284.311 4.82092C 284.436 5.32307 284.813 5.57415 284.813 6.32737C 283.307 9.34026 278.161 6.82952 276.279 9.84241C 278.036 11.3489 280.671 10.3446 281.048 13.8596C 282.052 12.9808 283.056 13.7341 284.562 13.6085C 284.562 13.1064 284.311 12.9808 284.311 12.4787C 285.44 12.6042 284.562 12.1021 285.064 11.5999C 285.817 11.0978 286.821 10.7212 287.197 9.59133C 289.08 9.21472 289.582 10.3446 290.46 11.0978L 290.335 11.3489L 290.711 11.2233C 291.088 11.3489 291.715 11.3489 291.841 11.851L 291.715 12.2276L 292.092 12.3532C 291.966 12.6042 291.841 12.8553 291.841 13.2319C 294.351 13.9851 293.096 12.6042 295.606 12.1021C 295.731 12.7298 296.359 13.2319 295.857 13.8596C 296.735 13.7341 296.61 12.4787 297.237 12.1021C 296.735 11.5999 296.735 11.4744 296.986 10.5956C 297.488 10.7212 297.488 11.3489 297.739 11.7255C 298.367 11.7255 298.618 11.3489 298.743 10.5956C 299.245 11.0978 299.496 11.9765 300.375 12.1021C 299.998 12.9808 300.249 13.7341 300.626 14.3617L 300.249 14.4873L 300.375 14.8639C 299.998 15.2405 299.496 15.4916 299.371 16.2448C 298.869 14.8639 298.116 15.6171 297.488 16.2448C 297.739 14.7384 296.359 16.1193 296.108 16.2448C 295.606 16.3703 294.978 16.1193 294.476 16.2448C 293.096 16.6214 292.092 17.5002 290.962 18.2534C 291.088 16.6214 287.95 16.3703 287.825 17.3746C 287.699 17.8768 287.448 17.3746 287.072 17.3746C 287.072 17.6257 287.072 18.0023 287.072 18.2534L 286.695 18.1279L 286.821 18.5045C 286.319 18.5045 286.068 18.0023 285.44 18.2534C 285.189 14.9894 279.918 17.8768 278.161 15.6171C 277.157 16.3703 277.157 14.7384 276.53 15.8682C 276.279 15.115 275.526 14.9894 274.898 14.7384C 275.777 16.1193 274.773 15.7427 274.145 16.747C 277.032 18.63 280.044 17.7512 282.93 18.5045C 282.93 19.0066 283.181 19.1322 283.181 19.6343C 285.064 19.7598 288.076 21.2663 288.829 18.7555C 291.715 19.6343 293.974 18.0023 295.731 21.3918C 296.986 20.1365 297.363 21.1407 298.994 20.7641C 298.618 21.7684 299.747 20.8897 299.747 21.6429C 300.877 20.8897 302.383 21.0152 303.513 21.6429C 303.889 21.7684 304.015 21.3918 304.015 21.0152C 306.274 22.0195 307.152 20.262 309.411 21.0152C 309.537 20.0109 308.407 20.5131 308.658 19.2577L 309.035 19.3832L 308.909 19.0066C 308.909 18.7555 309.411 18.7555 309.411 18.3789C 309.788 19.0066 310.792 19.7598 310.164 20.6386C 311.545 21.5174 312.925 20.5131 314.431 21.2663C 314.306 21.6429 314.055 21.7684 313.929 22.145C 313.929 22.5217 314.682 22.2706 314.682 22.7727C 315.561 22.8983 314.682 21.0152 315.686 21.3918L 315.561 21.7684L 315.937 21.894C 315.812 22.7727 316.565 22.3961 316.439 23.4004C 316.816 23.4004 317.192 23.4004 317.569 23.4004C 316.816 24.1536 316.941 24.2792 317.067 25.409C 317.945 25.2835 319.075 25.409 319.2 23.6515L 319.2 23.4004L 318.949 23.4004C 319.075 23.1493 319.2 22.8983 319.2 22.5217C 320.581 22.6472 322.087 22.7727 322.087 21.0152C 322.84 21.3918 323.593 21.3918 323.718 20.3875C 323.593 19.7598 322.463 20.3875 322.338 19.7598C 322.463 18.7555 324.095 18.1279 324.973 18.8811L 324.597 19.0066L 324.973 19.1322C 324.597 21.0152 326.228 20.3875 326.605 21.3918C 326.981 20.6386 329.617 22.0195 329.742 20.5131C 331.248 20.5131 332.503 20.7641 333.508 21.3918C 335.014 20.5131 338.528 21.1407 341.038 20.7641C 341.289 20.7641 341.289 20.3875 341.289 20.1365C 341.414 21.2663 343.046 20.7641 343.673 21.2663L 344.05 21.3918L 343.924 21.0152C 346.309 18.63 348.568 21.3918 351.956 20.1365C 352.584 22.145 354.717 20.8897 356.223 21.6429L 356.098 22.0195L 356.474 22.145C 356.223 23.777 354.466 21.894 354.592 24.1536C 355.596 24.6558 356.851 23.9026 357.227 22.145L 357.604 22.0195L 357.478 21.6429C 358.482 21.894 358.859 21.2663 359.863 21.3918L 359.737 21.894L 360.114 22.2706C 358.733 23.777 361.62 25.6601 361.243 24.0281C 360.114 22.2706 360.239 21.7684 360.239 21.7684L 359.863 21.3918C 359.863 20.8897 359.612 20.7641 359.612 20.262C 360.239 20.1365 360.616 19.5088 361.243 19.3832C 361.243 20.1364 361.871 20.262 362.373 20.262C 362.247 20.6386 361.996 20.7641 361.871 21.1407C 362.247 21.1407 362.373 20.7641 362.875 20.8897C 363.251 21.1407 363.377 23.2749 364.004 22.3961C 364.632 22.7727 364.381 23.777 363.753 24.1536C 364.13 24.9069 365.008 24.9069 365.134 25.9112C 368.272 25.409 371.158 25.409 374.17 26.7899C 374.923 25.7856 377.559 27.1665 377.433 24.5302C 377.057 24.4047 375.551 24.6558 375.3 23.6515L 375.676 23.2749L 375.551 22.7727C 377.684 22.8983 378.186 21.0152 379.567 20.1365C 379.316 20.8897 379.943 20.8897 379.818 21.5174C 382.328 21.7684 383.332 22.3961 385.465 23.2749L 385.34 23.777L 385.716 24.1536C 384.461 24.2792 383.583 24.7813 381.7 24.7813C 381.7 26.0367 382.328 26.4133 381.951 27.4176C 382.83 26.4133 383.583 28.7985 385.089 28.0453L 385.214 28.1708L 385.34 28.0453C 387.097 28.5474 389.105 28.4219 391.489 28.0453C 391.489 27.5431 391.364 27.2921 390.987 27.1665C 391.866 26.5388 392.619 27.041 393.121 28.0453C 394.501 28.2964 395.003 26.2878 396.007 26.9155C 396.007 26.0367 395.129 25.9112 395.756 25.1579C 394.376 25.0324 391.74 25.0324 389.105 25.1579C 389.23 24.2792 388.477 24.6558 388.603 23.6515C 392.117 22.3961 397.89 24.1536 401.153 22.5217L 401.53 22.6472L 401.404 22.2706C 402.534 23.0238 404.291 23.9026 405.922 23.1493C 405.044 23.6515 407.805 24.0281 409.06 24.0281C 409.938 24.0281 410.691 23.4004 412.197 23.777C 413.327 24.0281 414.08 24.0281 415.209 24.6558L 415.335 25.0324L 415.46 25.409C 415.46 25.1579 413.578 26.2878 413.578 26.2878C 413.327 26.2878 413.201 25.6601 412.825 25.6601C 412.072 25.6601 411.193 26.2878 410.44 26.2878C 410.315 26.2878 409.813 25.7856 409.687 25.6601C 408.307 25.2835 406.048 25.409 405.922 26.7899C 405.671 25.9112 403.914 27.041 404.04 27.041C 403.412 26.9155 403.914 26.4133 403.287 25.9112C 402.785 25.5345 401.53 25.7856 400.4 25.6601C 399.145 25.409 399.271 24.6558 398.016 25.0324C 397.513 25.409 397.137 25.9112 396.886 26.5388C 396.886 27.4176 397.89 27.041 398.517 27.1665C 398.517 26.6644 398.643 26.0367 398.267 26.0367C 398.894 25.2835 399.522 26.6644 399.898 27.7942C 401.028 27.5431 401.906 26.9155 403.036 26.6644C 402.91 27.6687 404.542 27.1665 403.789 28.1708C 405.169 27.7942 406.926 29.4262 408.934 28.7985L 409.185 28.924L 409.436 28.7985C 409.311 29.5517 410.691 28.5474 410.566 29.4262C 410.817 29.3007 410.817 28.5474 410.566 28.5474C 411.068 27.7942 411.57 29.4262 412.197 29.4262C 412.448 29.3007 412.574 29.1751 412.95 29.1751C 413.327 28.0453 412.323 28.673 412.448 27.6687C 413.201 28.2964 413.327 27.5431 414.08 27.041C 414.205 27.2921 414.331 27.6687 414.331 28.1708C 417.217 30.556 421.108 29.4262 424.998 28.7985C 427.383 30.1794 430.772 29.8028 431.901 27.9198C 431.525 26.7899 429.767 27.2921 429.265 27.041C 429.014 25.0324 431.776 26.5388 431.148 24.1536C 432.152 23.777 433.909 24.1536 433.533 23.2749L 433.909 22.8983L 433.784 22.3961C 434.16 22.3961 434.411 22.3961 434.788 22.3961C 434.411 22.5217 434.788 23.526 434.286 23.526C 434.286 23.6515 436.294 24.1536 436.921 23.526C 437.298 24.6558 437.925 23.9026 438.302 24.6558C 439.055 24.7813 438.929 23.9026 439.431 23.777C 440.184 24.4047 440.937 24.0281 441.565 25.2835L 441.69 25.5345L 441.816 25.7856C 440.937 27.5431 440.184 27.9198 437.549 27.2921C 436.921 27.2921 437.172 28.5474 436.419 28.4219C 436.294 29.8028 438.553 29.4262 438.804 28.673C 439.808 29.4262 441.188 28.7985 442.82 29.3007C 442.318 30.0539 444.075 30.1794 445.204 29.9283C 443.949 28.1708 447.087 28.1708 448.467 28.1708C 448.342 29.0496 447.965 29.4262 447.714 30.1794C 448.593 31.3093 448.844 29.8028 450.35 30.1794L 450.475 30.556L 450.601 30.1794C 451.856 30.305 453.989 30.8071 455.37 29.5517C 454.868 29.3007 454.742 28.5474 454.24 28.4219C 452.985 29.4262 451.856 29.3007 450.726 29.9283L 450.726 29.6773L 450.475 29.6773C 450.224 29.5517 450.099 29.4262 449.722 29.4262C 449.973 28.7985 450.475 28.5474 451.103 28.5474C 450.601 27.9198 449.471 27.7942 448.969 26.5388C 449.095 25.5345 450.224 25.7856 449.973 24.2792C 451.228 25.0324 451.479 23.6515 452.609 24.2792C 453.111 23.6515 452.232 22.5217 453.613 22.5217L 453.989 22.6472L 454.366 22.5217C 454.617 23.0238 456.123 22.5217 456.248 21.894C 456.499 22.145 457.503 22.8983 457.629 22.145C 456.75 21.0152 455.37 22.5217 454.491 21.894C 454.742 21.894 454.617 21.6429 454.491 21.6429C 454.491 21.894 454.24 21.894 454.24 22.2706L 453.864 22.145L 453.487 22.0195C 452.107 21.2663 450.35 21.894 449.471 21.7684C 448.467 21.6429 446.71 20.7641 445.204 20.6386C 441.816 20.3875 438.553 21.6429 435.039 21.2663C 434.286 21.1407 433.156 20.3875 432.403 20.3875C 432.278 20.3875 431.901 21.0152 431.901 21.0152C 431.023 20.8897 430.646 20.1365 429.517 20.3875L 429.642 19.8854L 429.265 19.5088C 429.642 19.0066 432.278 19.5088 431.148 18.0023C 432.529 17.6257 433.784 19.3832 436.545 19.1322C 437.047 19.1322 437.674 18.5045 438.176 18.5045C 440.31 18.5045 442.318 19.7598 443.196 17.8768L 443.196 18.1279L 443.447 18.1279C 443.698 18.2534 443.949 18.5045 443.949 19.0066C 446.961 17.7512 448.969 17.2491 452.734 17.8768C 453.236 17.6257 453.362 17.1236 453.487 16.3703C 454.115 16.747 456.248 15.6171 456.123 16.998C 456.75 16.747 457.503 16.4959 457.252 15.2405C 458.256 15.8682 458.131 17.7512 459.386 18.1279C 459.637 18.0023 460.264 16.998 460.515 17.8768C 460.892 17.8768 460.641 16.8725 461.018 16.747C 461.268 16.747 461.394 16.6214 461.52 16.4959C 463.653 16.747 466.038 15.7427 466.916 18.0023C 468.924 18.5045 469.928 18.2534 470.932 19.1322C 470.932 19.7598 469.175 20.262 470.681 20.262C 469.301 20.262 467.418 21.3918 467.418 21.3918C 466.289 21.7684 465.41 21.3918 464.155 22.2706C 462.649 21.894 460.766 20.7641 459.386 21.1407L 459.009 21.2663L 459.135 21.6429C 458.758 21.6429 458.507 21.6429 458.131 21.6429C 458.256 22.145 457.88 22.145 457.88 22.5217C 458.005 22.5217 458.131 22.5217 458.382 22.5217L 458.256 23.0238L 458.633 23.4004C 458.633 23.6515 458.507 23.6515 458.382 23.6515C 458.382 24.4047 458.758 24.6558 459.135 25.1579C 459.26 24.7813 459.26 24.4047 460.264 24.5302C 460.013 26.2878 461.394 26.1622 461.896 26.7899C 462.649 25.9112 463.151 25.2835 463.779 26.7899L 463.653 27.1665L 464.03 27.2921C 463.904 28.1708 463.277 28.924 462.9 27.9198C 463.151 29.5517 465.536 30.305 466.163 29.0496C 465.034 29.0496 464.281 27.7942 464.281 27.2921L 464.406 27.041L 464.281 26.7899C 464.155 25.409 465.285 24.2792 465.034 23.6515L 464.908 23.4004L 464.783 23.1493C 465.159 23.0238 466.038 22.0195 466.414 22.8983L 466.038 23.0238L 466.163 23.4004C 466.289 24.9069 467.92 26.4133 469.426 27.1665C 469.928 24.7813 472.062 24.4047 473.944 25.6601C 474.572 25.409 475.325 24.5302 475.827 25.0324C 476.203 24.2792 475.45 23.2749 476.329 22.7727L 476.58 22.8983L 476.831 23.0238C 477.333 23.6515 477.458 23.1493 477.835 22.7727C 478.337 23.526 479.717 23.1493 480.47 23.0238C 479.341 23.1493 478.462 21.7684 477.584 22.3961C 477.584 22.0195 477.584 21.894 477.333 21.7684C 477.458 22.2706 477.207 22.2706 476.831 22.3961L 476.454 22.2706L 476.329 22.6472C 476.078 22.6472 476.078 22.5217 476.078 22.3961C 476.078 21.894 475.199 22.7727 474.948 23.0238C 474.697 23.0238 474.446 21.7684 474.195 22.7727C 474.07 22.5217 474.195 21.6429 473.066 21.894L 472.815 21.7684L 472.564 21.894C 472.187 20.8897 471.685 21.894 471.183 21.2663C 471.434 19.5088 470.932 18.7555 472.187 18.1279C 471.685 17.3746 471.685 16.8725 472.187 16.1193C 473.191 16.1193 473.317 17.1236 474.321 17.2491C 475.325 16.2448 474.07 15.7427 474.321 14.1107C 474.697 14.1107 474.823 13.7341 475.325 13.8596C 475.074 13.2319 474.823 12.6042 474.195 12.3532C 474.195 11.5999 474.572 11.4744 474.948 11.2233C 474.446 9.59133 473.442 8.58704 473.066 6.82952C 474.697 6.95506 475.074 5.44861 475.199 4.56985C 475.827 4.94646 476.58 4.94646 477.333 5.19754C 477.458 5.69968 477.082 5.69969 477.082 6.0763C 477.835 6.32737 477.835 5.57415 478.086 5.19754C 478.839 5.32307 478.713 6.32737 479.215 6.57844C 479.466 6.45291 479.466 5.95076 479.215 5.95076C 481.349 6.82952 485.114 7.08059 488.502 6.82952C 488.502 6.32737 489.13 5.69968 490.385 5.95076C 490.887 7.08059 490.761 7.70828 491.389 9.08919L 491.263 9.4658L 491.64 9.59133C 491.138 10.0935 490.51 10.4701 489.757 10.7212C 490.259 9.59133 488.377 9.96795 487.624 8.96365C 487.247 9.34026 487.247 10.3446 486.62 9.59133C 487.373 10.3446 487.247 11.2233 487.122 12.4787C 486.745 12.3532 486.494 12.1021 486.118 11.851C 486.118 12.1021 486.118 12.4787 486.118 12.7298L 485.741 12.8553L 485.867 13.2319C 484.486 13.1064 482.98 12.9808 482.729 11.4744C 481.349 11.4744 481.349 12.9808 479.592 12.6042C 479.09 15.115 481.6 14.7384 481.725 17.2491C 483.608 17.6257 483.984 16.2448 485.49 16.6214C 484.612 15.115 486.62 15.2405 487.624 15.115C 487.247 17.1236 489.004 16.4959 488.753 18.8811C 489.004 19.2577 489.255 19.0066 489.883 19.1322C 489.883 18.8811 489.883 18.5045 489.883 18.2534L 490.259 18.3789L 490.385 18.0023C 490.51 18.0023 490.761 18.0023 490.887 18.0023C 491.138 16.8725 492.393 16.3703 493.522 15.7427C 493.522 15.115 492.895 15.366 493.021 14.6128C 493.774 14.2362 494.903 14.2362 495.907 14.8639C 495.405 15.366 496.033 15.366 495.907 16.3703C 496.158 15.9937 496.284 15.4916 497.037 15.7427C 496.786 16.8725 497.539 16.8725 498.041 17.2491C 497.79 18.0023 498.166 18.1279 497.79 18.3789C 498.919 18.7555 498.668 19.6343 499.17 20.1365C 499.421 20.1365 499.421 20.0109 499.421 19.8854L 499.672 20.0109L 499.923 20.1365C 500.174 19.3832 501.178 20.8897 501.053 19.5088L 501.555 19.5088L 501.555 18.8811C 502.057 18.7555 502.308 18.0023 502.684 18.63C 502.684 19.0066 502.684 19.3832 502.684 19.7598C 502.433 19.6343 501.806 19.1322 501.931 20.0109C 502.182 20.0109 503.312 20.262 502.684 21.1407C 503.688 20.5131 503.312 21.6429 504.065 21.7684C 504.19 21.3918 504.19 21.0152 504.818 20.6386L 505.069 20.7641L 505.32 20.8897C 505.822 20.7641 506.324 21.7684 506.324 20.6386C 506.575 20.8897 506.951 20.7641 507.077 21.2663L 507.077 21.5174L 507.328 21.5174C 506.826 22.2706 507.83 22.2706 507.328 23.2749L 506.951 23.4004L 507.077 23.777C 506.324 23.1493 504.19 24.2792 505.445 22.8983C 504.316 23.526 503.061 24.9069 502.308 24.4047C 502.81 24.7813 502.81 25.5345 502.308 25.9112C 501.178 26.2878 501.053 25.7856 500.425 26.1622C 501.178 26.5388 501.68 26.1622 502.308 27.041L 502.182 27.2921L 502.308 27.5431C 502.433 28.5474 502.308 29.0496 502.559 29.3007C 502.935 27.9198 503.186 29.6773 503.939 29.5517C 504.567 28.0453 505.571 30.305 506.073 29.3007C 505.947 29.4262 505.445 30.4305 506.073 30.4305C 507.077 30.1794 506.198 29.4262 507.202 29.3007C 507.955 29.9283 508.457 30.9326 509.336 31.5603C 509.336 31.3093 509.587 31.3093 509.587 30.9326L 509.963 31.0582L 510.214 30.6816C 510.967 32.0625 511.469 31.0582 511.846 30.6816L 511.846 31.4348L 512.097 31.4348C 512.975 31.5603 513.603 31.4348 514.23 31.1837C 514.23 32.3135 514.732 32.8157 515.36 33.1923C 515.987 32.8157 514.983 32.3135 515.611 32.0625C 516.238 32.9412 518.246 34.0711 519.125 32.9412C 519.627 34.0711 520.756 34.3221 521.258 32.9412L 521.509 32.5646L 521.635 32.0625C 521.886 32.188 522.011 32.3135 522.137 32.6902C 522.89 32.4391 522.639 32.4391 523.266 32.6902C 523.392 33.5689 523.643 34.0711 524.271 34.4477C 524.647 34.4477 524.772 34.0711 525.274 34.1966C 524.898 33.82 524.898 32.8157 525.274 32.4391C 526.781 32.4391 527.785 35.0754 529.291 33.3178C 527.785 32.4391 526.53 31.5603 524.145 31.0582L 523.894 30.9326L 523.643 31.0582C 522.639 30.1794 522.011 29.5517 521.76 28.4219C 521.76 27.9198 523.015 27.4176 522.262 26.9155L 522.388 26.6644L 522.262 26.4133C 522.513 25.5345 521.886 25.6601 522.011 24.9069C 523.517 24.7813 525.149 26.0367 526.028 25.7856C 526.028 26.7899 526.655 26.4133 527.031 27.5431C 528.286 27.6687 528.914 27.041 529.416 26.4133C 528.914 25.9112 527.91 26.0367 528.286 24.4047C 527.283 23.526 527.157 23.2749 525.4 23.526C 525.526 22.6472 525.023 22.5217 525.149 21.5174C 526.027 22.0195 527.283 21.6429 526.781 22.3961C 527.032 22.3961 527.031 22.145 527.283 22.145C 527.408 21.5174 526.781 21.7684 526.781 21.2663L 527.157 21.1407L 527.031 20.7641C 526.781 19.8854 526.279 17.7512 525.902 16.1193C 526.655 15.9937 526.781 15.366 527.283 14.9894C 528.412 15.8682 528.914 16.1193 529.918 16.4959C 530.169 16.6214 530.671 15.6171 530.169 15.6171C 530.671 14.6128 531.675 16.8725 532.303 15.6171C 532.679 15.8682 533.181 16.2448 532.805 16.747C 533.181 16.6214 533.181 16.998 533.558 16.998L 533.432 17.3746L 533.809 17.5002C 533.934 18.0023 532.679 18.0023 532.805 17.5002C 532.177 17.6257 533.181 18.0023 532.805 18.63C 532.177 17.8768 531.926 19.5088 531.173 19.5088C 531.048 19.2577 530.922 18.8811 530.922 18.3789C 530.295 18.3789 530.42 18.8811 529.918 18.3789C 529.918 18.8811 530.169 19.0066 530.169 19.5088C 529.793 19.5088 529.291 19.8854 529.04 20.1365C 528.789 20.3875 528.161 21.0152 528.036 21.0152C 527.91 21.2663 529.165 21.6429 527.785 21.6429C 527.785 22.6472 528.663 22.5217 529.416 22.5217C 530.546 24.9069 532.177 25.1579 532.93 27.4176C 532.679 27.9198 532.428 28.5474 531.926 28.0453C 532.052 28.2964 532.177 28.5474 532.177 28.924C 532.93 29.0496 532.554 27.9198 533.181 28.673C 533.432 27.9198 532.554 25.7856 534.185 25.5345C 533.056 25.1579 532.554 23.2749 530.671 22.6472C 530.671 22.145 530.42 22.0195 530.42 21.5174C 531.55 21.7684 531.675 21.6429 532.805 21.7684C 532.554 21.2663 532.052 21.1407 532.052 20.262C 532.554 19.5088 533.683 19.5088 533.683 18.2534C 534.813 19.5088 534.813 18.1279 535.566 19.7598L 535.817 20.1365L 536.068 19.7598C 536.319 19.0066 537.323 20.262 536.821 20.3875L 536.444 20.262L 536.068 20.1365C 535.942 20.1365 535.942 20.1365 535.817 20.1365C 535.691 20.8897 534.687 21.6429 535.566 22.145C 534.813 22.5217 534.687 21.7684 534.436 22.7727C 534.687 23.1493 535.315 23.1493 535.817 23.0238C 535.691 22.2706 535.942 22.0195 536.57 22.145C 536.319 21.2663 536.57 21.5174 536.57 20.3875L 536.946 20.5131L 536.821 20.1365C 537.323 19.6343 537.699 20.5131 538.201 20.3875L 538.076 20.7641L 538.452 20.6386C 539.456 21.3918 540.335 22.145 541.088 23.2749C 540.46 23.2749 540.335 23.777 539.958 23.2749C 540.084 23.9026 540.962 24.0281 540.46 24.7813C 541.339 25.0324 541.088 24.9069 542.092 25.0324L 542.343 25.409L 542.719 25.2835C 542.719 25.5345 542.719 25.9112 542.719 26.1622L 542.343 26.5388L 542.468 27.041C 540.209 26.6644 537.574 26.6644 537.699 23.2749C 537.323 23.1493 537.323 23.526 536.946 23.526C 537.574 23.777 537.197 23.526 537.197 25.0324C 536.444 24.9069 535.942 24.5303 535.566 24.1536C 534.185 24.2792 535.064 25.409 534.562 26.4133C 535.315 27.041 536.695 28.7985 537.448 27.5431L 537.574 27.9198L 537.95 27.7942C 538.452 27.6687 538.829 27.7942 539.08 28.0453C 538.954 28.673 538.452 28.673 538.327 29.1751C 538.954 31.1837 541.339 29.0496 542.343 29.8028C 542.845 30.1794 542.468 30.6816 543.096 31.3093C 543.598 31.1837 543.347 30.1794 543.849 30.1794C 544.602 30.1794 543.974 31.0582 544.602 31.6859C 545.355 31.8114 545.606 31.0582 545.731 31.9369L 545.606 32.3135L 545.731 32.6902C 544.853 33.0668 544.351 33.9455 543.849 34.6988C 544.602 35.2009 544.476 35.0754 544.602 36.2052C 545.857 36.5818 547.865 37.9627 549.12 37.7116C 548.994 37.4606 548.869 37.2095 548.869 36.8329L 548.994 36.4563L 548.869 36.0797C 549.496 35.8286 549.496 36.4563 549.998 36.3307C 550.124 37.2095 550.375 37.4606 549.998 37.8372C 550.626 38.7159 550.751 38.5904 551.881 38.4649C 552.257 39.3436 552.508 40.4735 551.128 40.4735C 551.002 41.1012 551.881 42.1054 552.132 41.3522C 552.006 41.9799 553.01 42.4821 553.512 43.1097C 554.642 42.7331 555.144 42.8587 556.148 43.1097C 556.273 44.3651 555.52 43.4864 555.395 43.9885C 555.395 44.8673 556.273 44.7417 557.026 44.8673C 557.78 46.3737 558.658 46.1226 559.913 46.8759L 559.537 47.2525L 559.662 47.7546C 559.034 47.2525 558.909 48.7589 559.411 48.6334C 559.411 48.2568 559.411 48.1312 559.662 48.0057C 559.662 48.3823 559.662 48.5078 559.913 48.6334C 559.913 48.2568 560.164 48.5078 560.164 48.6334L 560.039 49.01L 560.415 49.1355C 559.913 49.7632 558.658 49.7632 557.277 50.0143C 557.277 49.3866 556.65 49.6377 556.776 48.8844L 557.152 48.5078L 557.026 48.0057C 557.278 47.8802 557.152 47.378 557.529 47.378C 557.403 47.8802 557.779 48.0057 557.779 47.6291C 557.277 46.8759 555.646 45.3694 554.642 46.4992C 554.14 46.3737 554.14 45.746 553.889 45.3694C 552.006 45.746 550.877 43.7374 549.873 44.7417C 551.002 44.9928 550.877 45.3694 551.504 45.6205C 551.128 45.9971 550.877 46.4992 550.5 46.7503L 550.249 46.3737L 549.873 46.4992C 548.994 46.2482 547.614 44.3651 546.986 45.6205C 548.116 45.1183 547.363 47.1269 548.367 46.7503C 548.618 46.6248 548.492 46.1226 548.869 46.1226C 548.869 46.6248 549.622 46.2482 549.873 46.7503L 550.249 46.8759L 550.626 46.7503C 550.751 47.1269 551.002 47.5035 551.379 47.6291C 551.379 47.1269 551.002 46.8759 551.379 46.7503C 551.504 46.7503 551.755 46.7503 551.881 46.7503C 551.63 47.1269 551.63 47.378 552.132 47.378C 552.508 47.2525 552.257 46.4992 552.634 46.4992L 552.759 46.8759L 552.885 46.4992C 554.767 47.0014 554.642 47.7546 556.901 47.378C 556.901 47.6291 556.65 47.6291 556.65 48.0057L 556.273 48.3823L 556.399 48.8844C 556.148 48.8844 556.148 49.3866 556.148 49.7632C 555.395 49.7632 554.767 49.7632 554.014 49.7632C 554.014 50.0143 554.265 50.0143 554.265 50.3909L 554.014 50.3909L 554.014 50.642C 553.387 51.0186 552.006 49.5121 551.128 50.0143C 551.504 50.5164 552.132 50.642 552.508 51.1441C 552.257 52.1484 553.136 54.5336 553.889 54.2825C 553.387 54.5336 553.136 55.4124 552.257 55.1613C 552.257 55.2868 552.257 55.4124 552.257 55.4124L 551.881 55.2868L 552.006 55.6635C 552.006 56.0401 552.006 56.1656 552.257 56.2911C 552.132 56.9188 551.63 55.789 551.755 57.1699C 551.504 56.5422 551.002 56.5422 551.504 57.1699C 550.5 58.2997 550.375 55.789 549.371 56.0401C 548.743 57.672 551.379 58.4253 552.634 58.2997C 552.759 58.9274 552.634 59.1785 552.132 59.1785C 553.01 60.3083 553.889 59.304 555.018 60.3083C 555.018 60.8105 554.265 60.5594 554.265 61.1871C 554.893 61.9403 555.018 61.5637 554.265 62.6935C 554.391 62.9446 554.893 63.0701 554.516 63.3212C 554.767 63.4468 555.269 63.8234 555.897 64.2C 555.771 64.451 555.395 64.451 555.395 65.0787C 556.022 65.3298 556.524 65.832 557.026 66.2086C 556.273 67.3384 557.654 68.0916 557.529 68.8448C 558.031 68.5938 558.407 68.0916 558.658 67.715C 559.411 67.8406 559.662 68.7193 559.788 69.4725C 558.784 69.4725 560.039 70.6024 559.286 71.23C 559.286 71.8577 560.164 71.3556 560.415 71.4811C 560.29 72.611 559.788 73.2386 559.286 73.7408L 559.16 73.3642L 559.034 73.7408C 558.784 74.1174 558.658 73.8663 558.282 73.7408L 557.905 73.6153L 558.031 73.9919C 557.779 74.2429 557.529 74.2429 557.026 74.2429C 557.403 74.8706 557.026 74.6196 557.026 75.3728L 556.65 75.2472L 556.776 75.6238C 557.152 77.0048 555.897 76.0005 556.524 76.5026C 555.018 76.7537 555.144 78.5112 554.642 78.7623C 554.642 79.8921 556.524 79.2644 556.022 78.1346C 557.026 78.2601 557.403 77.6324 558.156 77.5069C 558.407 77.758 558.658 78.1346 558.909 78.3857C 559.913 78.1346 560.29 77.2558 560.792 76.3771C 562.172 76.6281 562.8 79.5155 563.929 80.1432C 563.427 80.6453 562.298 80.5198 562.298 81.6496C 561.921 81.5241 562.298 81.3986 562.298 81.0219C 561.294 81.273 562.423 82.4028 561.545 82.7795C 561.796 83.1561 561.921 82.6539 562.298 83.4072C 562.172 84.0348 561.67 84.0348 561.294 83.6582C 562.172 85.1647 563.804 82.905 563.678 85.6668C 563.051 86.0434 562.549 86.42 562.047 85.6668C 561.67 87.1733 560.666 87.1733 559.16 87.4243C 559.034 88.3031 560.29 87.5499 560.164 88.5542C 561.294 87.9265 561.545 87.6754 562.047 87.4243C 562.172 87.6754 562.172 88.4286 563.176 88.3031C 563.427 89.1819 562.8 89.1819 562.674 89.684C 562.549 88.6797 562.423 89.9351 561.67 89.4329C 561.796 89.684 561.921 90.0606 561.921 90.5628L 561.545 90.4372L 561.67 90.8138C 561.168 90.6883 560.29 90.4372 560.666 90.8138C 560.792 91.1905 560.917 90.8138 561.168 90.8138C 561.043 91.6926 561.168 91.8181 561.67 91.4415L 561.796 91.8181L 561.921 91.4415C 562.674 91.5671 563.302 93.4501 564.055 92.0692C 564.682 91.8181 564.557 92.6969 564.808 92.948C 564.933 93.4501 564.682 93.4501 564.306 93.5757C 565.184 94.4544 566.188 93.8267 567.192 94.7055C 566.941 95.3332 567.192 95.4587 566.69 96.2119C 566.69 97.2162 567.694 96.9651 567.694 97.9695L 567.318 98.095L 567.443 98.4716C 567.067 98.4716 566.941 98.8482 566.439 98.7227C 567.067 99.3504 566.439 99.8525 567.192 100.229C 566.565 99.978 566.941 101.108 566.69 102.238C 566.565 102.865 565.435 103.744 565.686 104.246L 565.561 104.497L 565.686 104.748C 565.937 105.878 566.188 108.012 568.322 107.636L 568.196 108.012L 568.573 107.887C 570.455 107.51 569.828 110.9 571.836 111.402C 571.585 111.653 571.71 112.155 571.334 112.281C 571.459 112.532 571.71 112.657 572.087 112.908C 572.589 111.527 572.714 113.536 574.471 112.657L 574.722 113.034L 575.099 112.908C 575.852 113.787 574.346 114.917 575.35 114.917C 575.224 115.294 575.099 115.545 574.597 115.545C 574.597 116.423 574.973 116.8 574.848 117.804L 574.471 117.679L 574.597 118.055C 574.722 118.306 574.848 118.558 574.848 118.934C 575.35 118.306 576.73 119.311 577.734 118.934C 577.107 118.432 577.107 118.432 576.73 117.177C 577.107 117.177 577.86 117.679 578.111 116.298C 577.985 115.67 577.734 116.674 577.358 116.047L 577.232 115.67L 577.107 116.047C 576.228 115.419 576.228 114.164 576.605 112.908C 577.734 113.159 578.613 114.164 578.487 114.917C 579.24 115.67 581.123 117.428 581.625 118.055C 580.997 118.055 581.123 118.558 580.244 119.185L 579.868 119.06L 579.993 119.436C 579.617 119.813 579.491 119.687 579.491 118.809C 578.989 118.683 578.864 119.06 578.487 119.06C 579.115 119.687 579.993 120.19 580.37 121.068L 579.993 121.194L 580.119 121.57C 580.746 122.449 581.499 123.202 581.75 124.458C 582.754 123.453 582.378 124.96 582.503 126.215C 582.252 126.466 581.625 126.466 581.374 126.843C 581.876 126.717 581.876 127.973 582.754 127.973C 581.625 128.852 583.758 128.349 583.005 129.981C 583.256 129.605 584.135 129.856 584.135 129.103C 584.637 129.981 584.888 129.479 585.264 130.232C 586.017 129.479 585.39 129.605 586.268 129.354C 586.519 129.981 587.021 130.358 587.272 131.111C 586.143 131.111 586.519 131.864 585.39 131.362C 586.143 131.864 585.515 132.994 584.888 131.99C 585.139 132.869 584.637 132.492 584.637 133.748C 584.386 133.622 584.26 133.245 583.884 133.12L 583.507 132.994L 583.633 133.371C 583.005 132.994 582.378 133.371 582.252 134.25C 580.872 133.496 580.37 132.492 578.236 132.241C 577.734 132.367 578.613 132.994 577.985 133.371L 577.609 133.245L 577.734 133.622C 576.981 134.124 576.479 132.367 575.35 132.492C 574.848 131.488 576.103 131.237 575.601 130.986C 575.601 130.484 576.73 131.488 576.73 130.358C 576.73 130.232 576.73 130.107 576.73 130.107L 577.107 130.232L 577.232 129.856C 577.483 129.981 577.609 130.358 577.985 130.484L 577.86 130.86L 578.236 130.735C 578.738 130.609 578.613 131.237 578.989 131.362C 579.115 130.735 578.613 129.479 578.487 130.232L 578.362 130.107L 578.236 129.981C 577.985 130.358 577.86 130.107 577.483 129.981C 577.609 128.6 576.981 128.224 576.73 127.345C 577.483 126.969 577.609 127.094 578.111 127.596C 577.483 126.969 577.985 125.588 577.609 124.96C 577.734 123.83 578.362 125.211 578.613 124.081C 578.111 123.453 576.981 124.583 576.981 122.951C 576.479 123.077 576.856 124.332 575.977 124.081C 576.605 123.328 575.099 123.202 574.346 123.202C 574.848 123.83 575.099 124.709 575.099 125.211C 574.471 125.839 572.463 125.211 572.463 125.839C 572.212 124.458 570.957 125.211 570.581 124.332L 570.706 123.956L 570.581 123.579C 570.706 123.202 570.957 123.077 571.083 122.7C 570.079 122.951 569.451 123.202 569.451 122.449C 569.326 123.579 568.698 122.198 568.447 123.328L 568.322 123.579L 568.447 123.83C 568.196 123.956 567.82 124.332 568.196 124.458C 567.82 124.458 566.69 124.583 566.314 125.337C 565.686 125.211 566.69 124.834 566.565 124.458C 566.188 124.834 565.561 124.834 566.063 124.207C 565.812 124.458 565.435 124.709 565.31 124.207C 565.184 124.834 564.933 124.458 564.557 124.834L 564.18 124.96L 564.557 125.085C 564.431 125.713 563.804 126.717 564.557 126.843C 564.306 127.22 563.553 127.094 563.804 128.349C 564.808 127.973 564.055 127.847 564.306 128.349C 564.557 128.977 565.812 129.228 565.435 130.107C 565.812 130.107 566.188 130.107 566.565 130.107C 566.565 129.856 566.314 129.856 566.063 129.856C 567.318 130.358 569.075 129.856 570.33 129.228C 570.204 128.977 569.702 128.852 570.079 128.601C 569.075 128.098 567.192 130.107 566.565 128.852L 566.69 128.475L 566.565 128.098C 566.314 126.717 567.569 128.6 567.694 127.471L 568.071 127.596L 568.322 127.22C 568.447 127.22 568.447 127.22 568.573 127.22C 568.447 126.969 568.322 126.717 568.322 126.341C 568.573 126.09 569.326 126.969 569.451 126.969C 569.577 126.969 569.953 126.341 569.953 126.341C 569.953 126.341 570.581 127.094 570.957 127.22C 571.71 127.471 572.212 126.717 572.84 127.22L 572.589 127.471L 572.84 127.722C 572.589 128.098 572.212 128.349 571.71 128.349C 571.585 128.852 571.961 128.852 571.961 129.228L 571.459 129.605L 571.961 129.981C 571.961 130.232 571.71 130.232 571.459 130.232C 571.585 130.484 571.71 130.735 571.961 130.86C 571.836 131.488 571.585 130.484 571.208 131.111L 571.208 130.86L 570.957 130.86C 570.204 130.609 570.079 131.111 569.828 131.488C 569.2 131.488 569.075 130.986 568.698 130.86C 568.698 131.99 567.443 131.111 567.067 131.111C 566.565 131.111 566.063 131.99 565.937 131.99L 566.188 131.362C 565.812 131.237 564.431 131.99 564.306 131.111L 564.18 130.735L 564.055 131.111C 563.804 130.735 563.427 130.986 563.804 131.111C 562.925 132.618 561.921 130.986 560.541 131.739C 560.541 131.488 560.541 131.111 560.541 130.86L 560.917 130.735L 560.541 130.609C 560.666 129.981 561.67 130.358 561.67 129.73C 560.917 129.981 561.168 129.981 560.666 129.479C 560.792 129.981 560.541 129.981 560.164 130.107C 560.29 129.856 560.541 129.354 560.164 129.228C 559.913 130.107 559.788 128.6 559.16 128.977C 559.16 129.73 558.909 129.479 558.909 128.977C 558.031 129.103 557.905 130.232 557.779 130.484C 556.775 129.73 555.52 130.107 555.395 129.354C 554.265 129.981 552.759 129.73 552.132 129.354C 552.257 130.609 551.128 130.232 551.002 130.484C 551.253 130.735 551.379 130.986 551.504 131.362C 550.375 131.488 548.994 131.613 549.371 130.484C 548.994 130.609 548.116 130.107 548.241 130.735L 547.865 130.609L 547.614 130.986C 547.488 130.986 547.488 130.986 547.363 130.986L 547.488 130.609L 547.112 130.484C 547.237 129.354 546.359 129.605 546.108 130.232C 547.112 130.484 546.986 130.986 546.986 130.986L 547.363 131.111C 547.488 131.488 547.739 131.864 547.865 132.241C 548.994 132.367 549.12 132.241 549.747 133.12C 549.747 132.116 550.5 133.748 550.5 132.869C 550.249 131.864 553.01 132.994 552.132 131.99C 552.634 132.116 552.759 131.739 553.136 131.739C 552.634 133.12 554.014 131.488 554.265 131.111L 554.642 131.237L 554.516 130.86C 554.767 130.735 554.642 130.232 555.018 130.232C 555.018 130.986 555.144 130.609 555.52 130.484C 556.022 132.618 557.529 130.86 558.784 130.735C 558.407 131.739 559.537 130.86 559.537 131.613L 559.286 131.864L 559.537 132.116C 559.16 132.618 558.407 131.864 558.156 132.994C 559.537 133.748 559.286 132.869 560.039 132.367C 559.788 132.743 559.788 133.12 560.29 133.245C 561.043 132.367 562.8 132.241 563.427 132.618L 563.302 133.12L 563.678 133.496C 563.553 134.501 562.047 133.748 562.047 135.003L 561.796 135.38L 562.047 135.756C 562.047 136.007 561.796 136.007 561.796 136.384C 561.168 135.631 560.541 135.254 559.913 135.505L 559.788 135.38L 559.913 135.505C 559.16 135.756 558.031 135.128 558.031 135.505L 558.658 135.505L 558.658 135.756C 558.281 135.254 557.654 136.133 557.277 135.128C 556.775 135.254 557.278 136.509 556.273 136.007L 556.399 135.631L 556.022 135.756C 555.646 135.128 555.395 136.007 554.893 135.505C 554.893 135.882 554.893 136.007 555.144 136.133C 554.767 137.263 554.767 135.505 554.391 135.505C 553.512 135.003 554.265 136.509 553.638 136.384C 554.014 136.509 553.889 136.635 554.642 137.011C 554.642 137.514 553.01 137.514 553.638 137.89C 553.01 138.267 552.006 138.267 551.002 138.769C 551.128 139.773 551.63 139.146 551.253 140.275C 550.877 140.024 548.869 139.146 548.116 140.527L 547.99 140.15L 547.865 140.527C 547.112 140.778 547.363 139.773 546.861 139.648C 546.861 140.15 545.48 139.02 545.48 140.275C 545.731 140.401 546.108 140.778 545.731 140.903C 545.48 140.401 545.606 141.154 545.229 141.154C 545.229 140.401 544.727 140.401 544.476 140.024C 543.598 140.903 543.096 139.899 542.594 140.652C 542.97 140.778 543.221 141.029 543.598 141.28L 543.472 141.656L 543.849 141.531C 544.602 142.033 547.237 141.029 547.865 141.531C 547.614 141.405 547.614 140.903 547.865 140.903L 547.99 141.154L 548.116 140.903C 548.367 140.778 548.618 140.527 548.618 140.024C 548.618 142.159 550.5 141.405 551.504 142.284C 551.63 142.41 551.128 143.037 551.002 142.912C 551.128 143.163 552.006 142.912 551.755 143.79C 549.747 144.795 549.998 144.418 547.488 144.042C 546.233 145.422 543.974 145.548 543.472 145.799C 543.221 145.925 543.347 146.176 543.472 146.05C 542.468 146.427 541.59 147.054 540.586 145.799C 540.084 147.557 539.08 146.301 538.703 147.557C 536.193 146.05 537.95 150.193 535.566 149.063C 535.942 148.435 535.44 148.435 535.817 147.933C 535.315 148.812 534.687 147.808 533.934 148.561C 533.683 149.565 534.938 148.812 535.064 149.44C 534.687 151.072 534.311 149.189 533.934 149.189C 533.558 149.189 533.432 149.942 532.93 150.067C 532.679 150.067 532.177 149.44 531.926 149.44C 531.173 149.44 530.797 150.318 530.295 149.691C 530.295 150.695 530.797 149.691 531.299 150.569C 530.797 151.072 530.169 149.942 530.546 151.699C 530.295 151.699 530.42 151.323 530.295 151.072C 529.918 151.323 530.295 151.574 530.295 151.95C 530.546 151.699 531.173 151.825 531.048 151.072C 532.303 152.327 531.424 152.704 533.181 153.708C 533.181 154.461 532.303 154.085 532.177 154.838C 531.801 154.712 532.177 154.587 532.177 154.21C 531.424 154.336 531.801 155.34 532.679 155.089C 532.554 154.336 534.06 153.708 534.311 154.21L 534.185 154.712L 534.562 155.089L 534.185 154.963L 534.311 155.34C 533.809 155.591 534.185 156.219 533.558 155.591C 533.432 156.344 534.06 156.219 534.06 156.721L 533.809 157.097L 533.558 157.474C 532.805 157.348 532.177 157.6 532.428 158.604C 531.048 158.227 529.542 158.227 528.412 159.483C 528.914 158.478 527.659 159.232 527.659 159.232C 527.031 159.232 527.157 158.98 527.157 158.98C 526.028 159.608 525.274 159.859 524.271 159.608C 524.521 160.236 524.521 160.236 524.019 159.859C 524.647 160.11 523.643 160.864 523.768 160.487C 523.643 160.989 524.396 161.868 523.517 161.993C 524.145 162.37 524.271 162.244 524.898 162.621C 524.647 161.491 525.902 163.123 525.902 161.491C 526.655 161.115 527.283 161.617 528.036 160.864C 528.036 161.742 529.165 161.115 530.42 160.864C 530.295 160.612 530.169 160.361 530.169 159.985C 530.922 160.236 530.922 159.483 531.173 159.106C 531.424 159.232 531.55 159.357 531.926 159.357C 532.428 160.236 531.675 160.864 531.926 161.617L 531.675 161.617L 531.675 161.868C 531.299 161.993 531.424 162.621 531.424 162.998C 531.048 163.123 531.048 162.747 530.671 162.747C 530.797 162.998 530.922 163.249 530.671 163.374C 530.671 164.128 531.299 162.747 531.173 164.002C 531.926 164.128 531.55 162.998 532.177 163.751L 532.303 164.128L 532.679 164.002C 533.432 165.257 530.671 166.136 531.048 166.889C 530.42 166.262 529.918 167.517 529.918 167.517C 529.542 167.643 529.165 167.14 528.538 167.517C 528.538 167.14 528.538 167.015 528.286 166.889C 528.161 166.136 529.165 166.638 529.291 166.011C 529.165 165.006 528.036 165.257 527.91 164.253C 527.659 164.379 527.534 164.755 527.157 164.881C 527.157 165.132 527.157 165.257 527.157 165.508L 526.906 165.885L 526.781 166.387C 526.153 166.011 526.028 165.759 526.279 164.881C 525.651 164.755 525.275 165.885 524.396 165.132C 524.396 165.257 524.396 165.383 524.396 165.383L 524.019 165.257L 523.643 165.383C 522.764 166.387 522.137 165.383 521.258 166.011C 521.509 166.136 522.011 166.262 522.639 166.638C 522.388 167.391 521.635 167.391 521.258 167.768C 521.384 168.647 521.258 168.898 521.509 169.275C 521.76 169.777 520.129 169.4 521.007 169.902C 520.756 170.655 520.129 169.651 520.003 169.275L 520.38 169.149L 520.003 169.023C 520.129 168.145 518.748 169.4 519.25 169.651L 518.874 169.777L 519.25 169.902C 518.999 170.404 518.623 170.53 518.246 170.153C 518.246 170.53 518.246 170.906 518.246 171.283C 516.489 171.283 515.862 171.158 514.732 170.153C 514.858 169.902 514.983 169.526 514.983 169.023C 513.854 168.019 512.473 167.266 511.469 166.764C 511.218 166.764 511.218 167.266 511.218 167.643C 510.967 167.391 510.591 167.14 510.465 167.643C 510.089 167.517 510.465 167.391 510.465 167.015C 510.214 167.015 510.214 167.266 509.963 167.266L 509.838 166.889L 509.712 167.266C 508.457 166.889 508.457 166.136 508.081 165.257C 507.83 165.759 507.453 166.011 507.077 166.387C 507.83 166.764 507.955 167.768 508.081 169.023C 508.583 169.4 508.583 168.898 509.085 169.651C 508.959 168.647 508.583 167.517 509.838 167.643L 509.963 168.019L 510.089 167.643C 511.093 168.019 510.465 169.023 510.34 169.4C 510.591 169.651 511.218 169.526 511.469 170.279C 511.595 170.907 511.469 171.409 510.967 171.409L 510.716 171.032L 510.34 171.158C 510.34 170.781 509.838 170.907 509.838 170.53C 510.089 171.283 507.579 171.283 508.708 172.036C 508.081 172.664 507.077 172.664 506.324 172.664L 506.449 172.287L 506.324 171.911C 506.198 171.032 505.822 171.409 505.571 171.032L 505.696 170.781L 505.571 170.53C 505.445 169.902 504.943 169.777 504.441 169.651C 504.567 170.153 504.19 170.153 504.19 170.53L 503.814 170.404L 503.939 170.781C 503.939 171.409 503.061 170.906 502.81 171.032C 502.057 171.409 502.684 171.66 502.308 172.538C 501.053 172.287 500.551 172.915 500.425 174.045C 499.17 173.919 499.672 171.911 498.543 171.785C 498.417 171.283 499.923 171.283 499.296 170.907C 499.296 170.53 499.547 170.781 499.547 170.907C 499.798 170.907 499.798 170.781 499.798 170.655C 500.174 170.906 499.798 171.158 499.798 171.534C 500.676 171.283 500.927 169.777 501.68 170.907C 501.555 170.028 500.927 170.028 500.551 169.4C 500.551 170.153 500.927 170.028 500.551 170.53C 500.3 170.53 500.425 170.279 500.551 170.279C 500.676 169.526 499.421 170.53 499.547 169.651C 497.664 171.283 495.28 169.777 493.397 169.023C 493.02 169.777 492.016 169.651 491.765 170.53C 491.263 170.404 491.138 169.902 490.761 169.651C 489.506 170.781 488.628 170.655 488.628 171.911C 486.996 172.79 486.118 176.179 483.608 174.17C 483.231 173.041 484.612 174.17 484.361 173.041L 484.737 172.915L 484.612 172.538C 485.239 172.538 484.988 171.158 485.616 171.911C 485.114 169.526 482.604 172.036 481.6 170.781C 480.094 171.534 479.341 170.906 478.086 171.032C 477.458 170.53 476.956 170.279 476.705 171.283L 476.329 171.158L 476.203 171.534C 474.572 171.158 473.191 170.907 471.685 171.534C 470.305 170.781 469.175 171.158 468.171 171.785L 467.795 171.66L 467.544 172.036C 466.665 171.032 463.653 172.287 462.398 172.036L 462.147 172.036L 462.147 172.287C 460.766 172.036 459.009 170.781 457.629 172.287C 458.633 173.292 460.641 173.041 462.147 172.538L 462.523 172.664L 462.398 172.287C 463.277 172.664 463.402 172.162 464.03 172.915L 463.904 173.417L 464.281 173.794C 463.904 174.422 464.406 174.422 464.03 174.924C 461.268 175.049 458.256 175.928 456.499 174.673C 455.872 175.3 454.366 176.054 453.613 174.924C 453.487 173.417 453.989 172.79 453.613 171.785C 452.734 171.911 450.475 172.036 450.977 172.915C 450.726 173.668 450.099 172.664 449.973 172.287C 449.722 172.287 449.722 172.79 449.722 173.166C 448.467 171.66 447.84 171.409 446.459 173.166L 446.334 173.417L 446.459 173.668C 445.581 173.417 445.706 174.422 445.33 174.798C 443.698 175.175 443.573 174.547 442.192 174.547C 441.941 175.049 441.565 175.3 440.812 175.175C 440.561 174.045 439.808 172.538 440.059 171.66C 439.682 171.66 439.557 172.036 439.055 171.911C 438.302 170.153 436.043 172.287 435.29 171.283C 434.16 172.287 432.403 174.673 431.022 172.79C 431.273 172.287 431.525 171.66 432.027 172.162C 431.525 171.283 431.023 172.036 429.893 171.534C 430.395 172.036 430.646 172.915 430.646 174.17C 428.261 174.673 428.136 174.422 425.626 174.17L 425.751 173.668L 425.375 173.292C 425.5 172.664 426.128 172.538 426.379 171.785C 425.375 171.032 422.739 170.279 421.359 170.907C 421.359 171.785 422.488 172.036 421.861 172.915L 421.484 172.79L 421.61 173.166C 419.225 173.543 417.594 173.417 415.962 173.166C 416.088 172.664 416.088 171.911 416.464 171.66L 416.715 171.66L 416.715 171.409C 417.343 171.785 417.468 172.036 418.096 171.66C 418.221 170.781 417.092 170.655 416.715 171.032L 416.339 170.907L 416.464 171.283C 416.088 171.409 415.962 171.032 415.962 170.655C 414.08 171.409 411.068 170.028 409.813 171.534C 409.813 172.287 410.44 170.907 410.315 172.162C 411.319 172.162 411.57 171.158 412.197 172.162C 410.189 175.426 406.299 172.287 403.914 172.413C 402.157 172.538 400.526 174.17 398.894 172.413C 398.769 171.911 398.392 171.66 398.392 170.907C 395.505 173.292 390.987 172.287 388.226 172.036C 387.975 172.287 387.348 172.162 387.473 172.915C 386.846 173.166 386.971 172.287 386.72 172.036C 385.716 172.79 383.583 174.17 382.704 172.664C 382.453 172.915 382.328 173.166 382.202 173.543C 376.931 174.045 372.037 174.924 367.017 173.292C 366.514 173.417 366.514 174.296 365.887 174.17C 365.636 173.794 365.259 173.543 364.883 173.292C 361.62 173.041 358.357 173.166 355.219 173.292C 352.458 173.417 350.074 174.422 347.438 174.17C 347.313 175.049 347.815 175.049 347.689 175.928L 347.313 176.054L 347.438 176.43C 347.313 176.43 347.062 176.43 346.936 176.43C 345.807 173.292 343.422 174.17 341.54 173.292C 341.163 174.045 340.034 173.794 339.908 174.673C 339.281 174.673 338.779 174.547 338.528 174.045C 337.398 175.426 335.641 174.673 334.261 174.045C 332.754 174.798 331.625 174.924 329.993 174.296C 329.24 174.673 328.362 175.175 327.358 174.547C 327.107 174.673 326.981 174.798 326.856 175.175C 326.856 175.677 327.609 175.3 327.86 175.802C 327.985 176.807 327.609 177.058 327.358 177.56C 326.228 177.058 323.593 178.815 322.338 177.309C 321.334 177.686 322.463 177.937 322.338 178.815C 320.455 177.811 320.832 175.426 318.824 174.422C 318.573 174.798 318.196 175.175 317.82 175.551C 317.318 175.049 316.941 174.798 316.69 174.673C 316.439 175.426 316.188 176.179 315.31 176.179C 315.31 176.681 315.184 177.309 315.561 177.309C 314.557 179.192 311.67 178.188 309.662 178.188C 308.909 176.807 308.156 175.426 307.027 174.422C 306.399 175.175 305.772 175.802 304.893 176.179C 305.144 176.932 305.144 177.686 305.144 178.815C 304.391 179.066 303.638 179.192 302.007 179.066C 302.258 178.188 301.63 178.313 301.755 177.56C 302.007 177.309 302.383 177.434 302.508 176.932C 302.634 176.179 302.007 176.305 302.007 175.802C 301.253 176.43 300.249 175.551 299.371 175.551C 298.994 175.551 298.743 176.179 298.618 176.179C 298.367 176.179 298.241 175.677 297.865 175.551C 295.857 174.924 293.347 176.932 291.715 175.3C 291.339 175.175 291.213 175.551 291.213 175.928C 288.578 175.551 288.201 177.56 285.817 177.937C 285.691 178.564 285.44 179.066 285.566 179.945C 284.185 181.075 282.554 179.192 280.546 179.317C 279.918 176.305 276.906 177.309 274.647 176.681C 273.141 176.807 274.145 178.313 273.016 178.69L 273.141 178.313L 272.765 178.188C 271.51 177.56 270.882 176.807 269.878 177.058L 269.753 176.681L 269.376 176.807C 267.87 177.183 266.615 176.681 264.858 177.686L 264.356 177.686L 264.356 178.313C 263.854 178.439 263.979 177.811 263.603 177.686C 263.477 178.062 263.352 177.686 263.101 177.686L 262.85 177.56L 262.599 177.686C 262.222 176.932 260.842 177.309 260.214 176.807L 260.34 176.556L 260.214 176.305C 261.469 175.802 261.595 173.919 263.101 173.668C 263.226 172.664 262.599 172.538 262.599 171.66C 260.214 171.785 258.583 172.413 257.202 171.032C 255.947 171.66 254.19 171.785 252.182 171.283C 252.559 170.153 252.935 169.149 254.065 169.023L 254.065 169.275L 254.316 169.275C 254.818 169.149 254.818 169.651 254.818 170.153C 255.571 170.153 256.575 170.404 256.449 169.275C 255.696 168.898 255.445 169.275 254.316 169.023L 254.441 168.647L 254.065 168.772C 250.676 169.526 246.535 167.894 243.397 169.023C 242.644 169.275 242.393 170.53 241.264 170.153C 241.515 172.036 242.519 169.651 243.146 171.032C 243.021 171.66 242.393 171.66 242.142 172.162C 242.895 172.664 243.021 173.794 244.276 173.668C 244.652 173.543 244.527 172.915 244.527 172.538L 244.903 172.413L 245.029 172.036C 245.28 172.036 245.28 172.162 245.28 172.287C 246.409 172.287 246.033 171.534 247.162 172.036C 247.162 172.79 247.539 172.664 247.162 173.166C 248.166 172.79 248.543 174.17 249.296 174.296C 250.425 174.547 251.429 173.794 252.433 173.668C 252.433 173.417 252.433 173.292 252.433 173.041L 252.81 173.166L 252.684 172.79C 254.441 172.664 254.818 172.162 256.449 172.162C 256.073 173.041 256.073 173.041 256.198 174.17C 257.077 173.166 258.708 173.794 258.834 174.798C 258.959 175.551 257.453 175.802 258.081 176.807C 256.7 177.686 254.441 175.049 252.684 177.058C 252.057 176.932 251.68 176.305 251.053 176.179C 251.304 175.802 251.304 175.175 251.053 174.673C 250.676 174.673 250.927 175.677 250.551 175.802C 249.547 174.17 247.539 177.56 247.288 177.56C 246.409 177.56 246.66 176.43 245.907 176.054C 245.782 175.928 244.652 177.434 244.903 176.054C 244.652 176.932 243.397 176.556 242.77 176.932C 241.515 174.798 238.628 178.188 238 176.681C 235.992 177.811 234.361 176.305 231.851 176.43C 231.725 176.179 231.6 175.928 231.6 175.551C 228.086 177.309 225.325 174.422 222.313 175.551C 220.305 174.17 217.795 175.551 214.532 174.422L 214.657 174.045L 214.532 173.668C 215.159 173.166 216.665 172.664 216.163 171.032L 216.54 170.655L 216.414 170.153C 216.665 170.153 216.665 170.028 216.665 169.902C 216.038 169.526 215.661 169.275 215.034 169.651C 214.908 170.279 215.41 170.153 215.787 170.279L 215.661 170.781L 216.038 171.158C 215.41 171.911 215.159 171.409 214.155 171.409C 214.155 172.162 214.281 173.041 213.904 173.417L 213.779 173.794L 213.904 174.17C 213.653 174.422 211.645 174.924 211.771 173.919C 209.763 175.049 206.625 174.17 203.989 174.17C 204.24 172.915 204.617 172.162 203.989 171.032C 202.86 172.036 202.232 174.045 200.852 174.17C 199.848 174.296 199.471 172.664 198.718 173.292C 198.091 173.041 199.346 172.79 198.969 171.785C 198.091 170.404 197.589 171.283 196.836 171.534C 197.087 172.036 197.589 172.162 197.589 173.041C 196.961 173.543 196.334 174.17 195.706 173.292C 194.451 174.422 191.941 173.919 190.31 173.292C 190.435 172.79 191.063 173.041 190.812 172.162C 190.686 172.162 190.435 172.162 190.31 172.162L 190.435 171.785L 190.059 171.911C 189.557 171.409 188.929 171.032 188.427 170.404C 187.925 171.032 188.051 172.538 187.423 173.041C 186.796 171.785 185.039 171.785 184.537 171.032C 183.658 171.283 184.411 171.911 184.286 172.79C 183.909 173.041 183.658 173.543 183.156 173.668C 182.278 173.794 182.529 172.664 181.776 172.79C 181.901 171.785 182.78 171.911 182.905 171.032C 183.282 169.526 180.395 169.526 180.27 171.911C 179.015 171.032 177.885 172.915 176.505 171.911C 176.756 171.283 176.505 171.158 177.007 170.404C 176.505 169.651 176.254 171.785 175.626 171.911C 176.254 172.413 176.003 172.915 175.877 173.919C 175.501 173.543 174.245 174.17 173.241 173.919C 174.496 172.036 171.359 171.534 170.857 172.79C 170.48 172.287 169.351 172.036 169.853 171.409C 168.723 172.036 168.598 172.287 167.217 172.287C 166.966 170.655 164.707 170.279 164.331 172.036C 164.331 173.166 165.335 173.292 165.335 174.673C 163.703 175.175 163.954 173.292 162.699 173.166C 163.201 172.664 162.574 172.664 162.699 171.66C 159.311 169.4 151.906 168.647 150.4 173.417C 150.526 173.794 150.902 173.919 151.404 174.045C 150.651 175.677 148.518 175.049 147.89 173.794C 146.133 176.054 142.995 173.794 140.36 174.673C 140.36 174.422 139.858 174.422 139.858 174.045L 140.234 173.668L 140.109 173.166C 140.611 173.543 141.238 172.664 140.611 172.538C 140.485 173.041 139.858 172.287 139.607 173.166L 139.481 173.543L 139.356 173.919C 139.105 173.543 138.979 173.794 138.603 173.919L 138.477 173.543L 138.352 173.166C 138.101 172.664 137.724 172.413 137.348 172.036C 136.72 172.287 135.967 173.166 135.465 172.664C 135.34 172.915 135.716 173.292 135.716 173.292C 134.838 175.175 133.332 174.17 131.198 174.798C 130.571 174.924 130.069 175.677 130.069 175.677C 129.692 175.677 130.194 175.175 130.069 175.049C 129.567 174.673 128.312 175.426 128.186 175.3C 128.186 175.426 128.186 175.551 128.186 175.551L 128.061 175.426L 127.935 175.551C 127.935 175.3 128.061 175.3 128.186 175.3C 127.81 174.798 126.931 174.924 127.057 173.794C 125.174 173.919 124.923 174.045 123.794 174.924L 123.668 174.798L 123.794 174.924C 123.417 175.3 122.79 175.928 122.664 174.924C 121.66 175.3 121.158 176.054 119.527 176.43C 119.903 174.673 116.138 174.422 115.26 174.17C 114.758 175.049 113.879 175.677 112.875 175.928C 112.122 175.3 111.997 174.045 111.244 174.17C 111.62 174.045 110.49 174.924 110.741 174.422C 110.616 174.673 110.741 174.673 110.741 175.3C 109.361 173.794 107.604 174.296 106.474 173.543C 106.223 173.543 106.349 173.794 106.474 173.794C 105.094 174.547 103.713 173.292 102.458 173.794C 102.082 172.664 100.45 172.915 99.3208 173.166C 98.5678 171.032 96.0578 172.538 95.5558 173.417C 91.4142 171.66 87.3981 173.543 84.0096 172.79C 80.872 169.902 76.354 173.668 73.0909 170.153C 68.9493 170.279 65.6863 169.902 62.9252 169.902C 59.6622 168.019 54.8931 167.894 51.1281 166.764C 51.0026 166.764 50.7516 166.262 50.6261 166.136C 50.3751 166.011 49.9985 166.513 49.622 166.387C 49.2455 166.262 48.7435 165.885 48.4925 165.759C 47.865 165.634 46.9865 166.011 46.359 165.759C 44.2255 165.006 43.2214 162.621 41.3389 161.366C 41.3389 160.989 41.3389 160.864 41.5899 160.738C 39.4564 158.604 37.6994 155.465 34.6873 154.963C 34.0598 154.838 33.4323 155.34 32.8048 155.214C 31.2988 154.963 30.0437 153.457 28.2867 153.457C 28.0357 151.574 24.5216 151.825 25.0237 150.821C 23.7686 151.197 22.5136 149.314 20.7566 149.314C 20.6311 148.435 20.0036 148.059 20.2546 146.678C 17.7445 142.41 14.356 139.146 14.356 133.371C 14.7325 132.869 14.7325 131.99 15.109 131.613C 14.9835 129.479 13.9795 127.596 13.9795 125.588C 13.9795 125.085 14.2305 124.332 14.2305 123.83C 14.105 122.575 13.2265 121.57 13.101 120.315C 13.101 119.938 13.352 118.558 13.352 118.055C 13.603 114.917 11.3439 112.03 12.85 109.142C 12.4735 108.515 12.2225 107.761 12.348 106.506C 12.9755 106.38 12.9755 105.251 13.7285 105.376C 13.4775 102.489 11.9714 101.861 11.8459 100.229C 11.8459 99.6014 11.0929 98.7227 11.0929 97.9695C 11.2184 95.9609 13.603 93.5757 12.9755 91.5671C 12.348 89.8095 10.7164 90.1861 8.9594 90.0606C 7.95539 88.6797 6.19836 89.0563 4.69233 88.052C 4.19033 86.6711 3.18631 85.6668 1.55479 85.4157C 0.676272 83.4071 -0.70425 81.3986 0.425268 79.0134C 0.801773 78.2601 0.55077 78.5112 0.676271 77.5069C 0.927275 76.0005 2.3078 73.4897 3.56282 72.3599C 3.31181 71.4811 1.93129 70.8534 1.93129 70.6024C 1.80579 70.1002 1.55479 68.8448 2.4333 69.2215C 2.3078 68.8448 2.8098 68.7193 2.6843 67.8406C 4.31583 67.0873 5.57085 65.7064 6.70037 64.3255C 8.20639 64.3255 9.21041 63.6978 10.2144 63.1957C 10.2144 61.9403 12.097 60.4339 13.352 59.6806C 13.4775 56.5422 14.356 55.1613 17.619 54.5336C 17.368 53.6549 17.9955 53.7804 17.87 53.0272C 18.7486 53.9059 18.4975 51.6463 19.5016 51.8973C 20.6311 47.7546 24.3961 46.8759 27.7847 45.4949C 29.7927 41.4778 34.4363 39.3436 39.2054 38.2138C 41.7154 37.5861 44.9785 38.0883 46.9865 37.084C 47.4885 36.8329 47.9905 36.0797 48.367 35.9541C 50.3751 35.3264 52.6341 35.5775 54.2656 35.9541C 54.5166 35.8286 54.6421 35.703 55.0186 35.703C 55.5206 35.5775 55.5206 34.9498 55.7716 34.5732C 57.6542 34.3221 57.1522 34.5732 58.9092 34.8243C 60.2897 33.82 61.7957 32.4391 62.9252 34.5732C 63.5528 33.82 64.3058 34.3221 64.8078 33.0668C 66.1883 34.5732 68.3218 33.1923 69.8279 32.188C 71.2084 34.6988 72.7144 30.9326 74.5969 31.0582C 75.7264 31.1837 77.609 32.6902 78.362 30.1794C 79.4915 31.5603 81.123 31.0582 82.3781 30.4305C 82.3781 29.9283 82.3781 29.4262 82.3781 28.924C 82.8801 28.924 83.3821 27.6687 83.5076 28.2964L 83.3821 28.673L 83.7586 28.5474C 83.7586 28.673 83.7586 28.7985 83.7586 28.7985C 84.0096 29.5517 85.5156 28.673 84.7626 28.1708L 84.8881 27.9198L 84.7626 27.6687C 85.3901 27.2921 86.3941 27.041 86.6451 26.7899C 87.6491 27.2921 86.0176 28.5474 85.6411 29.4262C 86.1431 30.1794 86.2686 30.4305 86.3941 31.1837C 87.9001 31.1837 87.2726 30.0539 88.2766 29.1751C 89.5317 29.8028 90.0337 28.924 91.1632 28.5474C 91.5397 28.4219 91.6652 28.924 92.1672 28.7985C 92.6692 28.673 92.9202 28.0453 93.2967 27.9198C 94.4262 27.5431 96.3088 28.2964 96.8108 28.7985C 97.4383 29.4262 96.4343 30.305 97.3128 30.305C 98.0658 30.305 98.6933 28.5474 98.6933 28.0453L 99.0698 28.1708L 98.9443 27.7942C 98.9443 26.9155 99.8228 27.6687 100.074 26.6644C 100.576 26.9155 101.078 27.1665 101.454 27.5431L 101.329 28.0453L 101.705 28.4219C 101.454 28.7985 101.58 28.924 101.705 29.3007C 101.831 29.3007 102.082 29.3007 102.207 29.3007C 101.956 28.5474 102.333 28.4219 101.956 28.1708L 102.082 27.9198L 101.831 27.6687C 102.207 26.4133 103.839 25.0324 104.717 26.1622L 104.592 26.6644L 104.968 27.041C 104.843 28.0453 106.474 28.1708 106.851 27.6687C 106.223 27.6687 105.972 27.1665 105.721 26.7899L 105.596 26.5388L 105.47 26.2878C 106.098 25.9112 106.6 25.5345 106.851 24.7813C 107.604 25.0324 108.608 25.1579 109.486 25.409C 108.608 26.4133 109.612 26.2878 110.239 26.5388C 110.365 27.4176 109.863 27.6687 109.737 28.2964C 110.491 28.4219 110.49 27.6687 111.118 27.6687C 111.369 26.6644 110.616 26.2878 111.118 25.6601L 111.495 25.2835L 111.369 24.7813C 112.624 23.526 113.503 23.526 115.134 23.0238C 115.009 22.3961 113.879 22.8983 114.13 21.894C 114.632 21.7684 115.009 21.3918 115.762 21.6429C 115.887 23.1493 116.891 23.2749 116.766 25.1579C 117.519 24.6558 118.021 25.5345 118.899 25.7856C 118.774 24.9069 118.899 24.6558 118.648 24.2792C 119.15 23.777 120.154 23.9026 120.782 23.6515C 120.656 24.6558 121.033 25.0324 121.284 25.6601C 122.539 24.1536 123.794 23.777 126.304 24.1536C 125.676 24.9069 126.68 24.4047 126.806 25.0324C 128.688 23.526 131.575 24.5302 132.453 23.0238C 132.202 22.2706 131.449 23.1493 131.073 23.0238C 129.316 18.5045 135.089 19.0066 136.971 17.8768C 137.724 19.6343 138.226 22.8983 140.485 21.894C 140.611 20.6386 139.481 20.7641 139.105 20.1365C 139.607 19.1322 140.109 18.0023 140.234 16.6214C 142.995 16.2448 145.004 16.4959 146.635 14.6128C 145.631 13.1064 144.251 14.6128 142.87 13.1064L 142.996 12.7298L 142.619 12.6042C 144.878 10.3446 147.388 11.4744 150.4 10.3446C 150.902 10.4701 151.906 11.5999 152.283 10.9722L 152.659 11.0978L 152.534 10.7212C 153.914 8.96365 155.671 9.34026 158.181 8.96365C 157.052 14.1107 149.522 11.3489 148.016 15.8682C 148.016 16.1193 148.267 16.1193 148.267 16.4959C 150.024 16.6214 150.526 15.4916 151.153 14.2362C 152.91 13.8596 154.291 12.2276 156.801 13.1064L 156.675 13.3574L 156.801 13.6085C 155.546 14.4873 156.424 16.2448 155.671 17.6257C 158.181 19.1322 161.444 14.2362 164.456 16.998C 165.46 16.8725 165.711 15.9937 166.59 15.8682C 166.339 15.115 165.586 15.115 165.209 14.7384C 164.958 13.483 165.711 13.3574 165.962 12.7298C 165.711 12.1021 165.209 11.851 164.331 11.851C 164.456 11.5999 164.833 11.5999 164.833 10.9722C 164.707 10.7212 164.456 10.5956 164.08 10.3446C 163.452 10.5956 163.201 11.2233 162.197 10.9722L 162.072 10.5956L 161.695 10.4701C 161.695 10.219 161.821 10.219 161.946 10.219C 161.821 9.59134 161.57 9.08919 161.695 8.21043C 161.946 8.08489 162.072 7.95935 162.197 7.58274C 165.084 8.71257 167.343 5.69969 170.229 7.33167C 170.229 8.08489 169.602 8.21043 169.1 8.21043C 169.1 9.96795 170.48 9.96795 170.104 12.2276C 171.108 11.9765 171.861 11.3489 172.99 11.0978C 172.865 10.5956 172.112 10.8467 172.237 9.96795C 172.739 9.71687 173.869 9.34026 174.371 9.96795L 174.245 10.3446L 174.622 10.4701C 174.245 12.8553 177.132 12.8553 178.136 11.9765C 178.011 10.5956 178.513 10.3446 178.136 9.34026C 179.768 9.4658 179.517 11.7255 181.023 11.9765C 180.897 12.9808 181.399 14.7384 180.521 14.8639C 180.646 15.8682 182.403 15.115 182.403 16.3703C 182.78 15.8682 183.156 15.366 183.533 14.8639C 184.286 15.2405 185.29 15.115 186.419 15.115C 186.545 14.4873 185.917 14.7384 185.917 14.2362C 186.796 12.3532 185.917 10.3446 187.298 9.34026C 186.545 8.83811 185.792 8.4615 185.415 7.58274C 185.666 7.20613 185.792 6.70398 186.168 6.45291C 185.917 5.69968 185.164 5.69968 185.415 4.44431C 186.67 3.06341 190.059 4.31878 191.063 2.68679C 191.314 2.81233 191.439 3.18894 191.816 3.31448C 196.836 1.55696 201.479 2.05911 206.499 1.30589C 206.625 1.80803 207.002 2.05911 207.002 2.81233C 207.127 2.81233 207.378 2.81233 207.504 2.81233L 207.378 3.18894L 207.755 3.31448C 207.378 3.94217 206.876 4.44431 207.002 5.95076C 206.123 6.32737 205.119 6.45291 204.366 7.08059C 203.864 6.82952 203.738 6.0763 203.236 5.95076C 203.236 5.19754 203.236 4.56985 203.487 4.19324C 202.985 3.69109 201.981 3.94217 201.605 3.31448C 199.597 4.94646 195.832 5.32307 192.569 4.82092C 192.192 5.072 192.067 5.44861 192.067 5.95076C 192.318 7.20613 193.071 7.83382 194.451 7.70828L 194.326 8.08489L 194.451 8.4615C 194.702 10.8467 196.71 9.84241 197.714 9.34026C 198.467 9.4658 198.969 9.96795 198.844 11.0978C 200.475 11.2233 200.475 13.3574 202.609 12.8553C 201.981 11.3489 203.487 9.59134 203.111 7.95935C 203.362 7.70828 203.738 7.83382 203.864 7.33167C 207.755 8.83811 209.637 4.82092 212.9 6.45291C 212.775 6.82952 212.649 7.08059 212.147 7.08059C 214.783 9.08919 218.924 6.95506 221.183 8.4615C 221.309 8.96365 220.807 10.219 221.685 9.96795C 221.811 10.8467 221.058 10.4701 221.183 11.4744C 221.183 11.7255 221.434 11.7255 221.434 12.1021C 222.438 11.851 223.568 11.5999 223.568 10.0935C 224.823 9.96795 225.952 9.08919 226.831 10.0935C 228.211 9.34026 229.717 8.08489 231.6 8.58704C 231.349 9.59134 232.855 10.5956 233.733 11.2233L 233.357 11.3489L 233.733 11.4744C 233.482 12.3532 232.604 12.4787 232.102 12.9808C 233.357 14.3617 235.239 12.4787 236.62 12.9808C 235.992 12.2276 235.239 11.4744 234.988 10.3446C 235.616 8.83811 236.62 7.20613 236.369 5.69968C 238.126 5.82522 238.377 6.0763 239.883 5.69968C 240.134 7.58274 240.887 8.83811 242.77 8.83811C 243.272 10.7212 245.531 10.3446 246.786 11.0978C 247.037 10.9722 247.162 10.7212 247.288 11.0978C 246.786 8.71257 249.045 7.58274 251.555 7.95935C 251.931 9.34026 253.061 10.8467 254.19 9.71687C 254.065 8.71257 253.814 7.83382 253.939 6.57844C 254.692 6.70398 254.692 5.95076 255.32 5.95076C 255.194 4.82092 255.194 3.44002 253.939 3.69109C 253.939 3.44002 254.19 3.44002 254.19 3.06341L 254.316 2.81233L 254.065 2.56126C 254.19 2.56126 254.19 2.56126 254.316 2.56126C 254.818 2.43572 254.316 1.05481 254.818 0.803738C 256.198 2.05911 257.202 -0.702707 259.085 0.176052C 258.959 0.929275 259.461 0.803738 259.336 1.6825C 260.34 0.803738 261.595 1.80803 262.599 1.6825L 262.222 1.93357ZM 255.445 12.7298C 256.198 12.8553 256.575 13.483 257.328 13.6085C 257.453 13.2319 257.704 13.1064 257.579 12.4787C 257.202 11.9765 255.445 11.7255 255.445 12.7298ZM 246.158 15.2405C 246.535 13.7341 245.154 14.1107 244.778 13.483C 244.652 14.8639 245.154 15.4916 246.158 15.2405ZM 476.454 17.2491C 476.58 17.2491 478.337 17.8768 478.588 16.3703C 478.086 16.1193 477.333 16.1193 476.956 15.7427C 477.082 16.4959 475.701 16.8725 476.454 17.2491ZM 189.18 16.3703C 188.804 16.2448 188.678 15.9937 188.176 16.1193C 187.8 16.998 189.306 16.998 189.18 16.3703ZM 493.522 23.4004C 491.389 22.7727 489.506 23.9026 490.008 20.7641C 488.502 21.1407 488 22.5217 486.243 21.894C 486.118 22.2706 485.867 22.6472 485.741 23.0238C 486.494 23.1493 486.871 22.8983 487.122 22.3961C 487.373 24.2792 490.761 24.2792 490.636 23.0238C 490.51 24.2792 492.016 23.6515 492.267 24.5302C 492.518 25.409 491.138 25.6601 491.765 26.0367C 492.016 25.6601 493.397 27.4176 493.648 25.7856C 493.021 25.7856 493.02 25.1579 492.644 24.9069C 493.648 25.0324 492.393 24.1536 493.397 24.0281L 493.773 24.1536L 493.648 23.777C 494.778 24.4047 497.915 25.6601 498.794 24.6558C 498.417 24.5303 498.543 23.9026 498.543 23.526C 496.409 23.777 495.28 22.3961 493.522 23.526L 493.397 23.1493L 493.522 23.4004ZM 154.165 22.7727C 154.542 22.8983 154.416 23.4004 154.667 23.6515C 155.546 23.4004 155.546 23.6515 156.048 23.4004C 156.048 22.0195 154.667 22.0195 154.165 22.7727ZM 340.41 23.4004C 341.289 24.1536 341.916 24.5302 342.795 23.6515C 342.167 23.4004 340.787 22.145 340.41 23.4004ZM 478.588 25.409C 478.964 25.7856 478.839 26.7899 479.341 27.1665C 479.968 27.2921 479.843 26.6644 480.47 26.9155C 479.843 25.6601 480.847 26.0367 480.972 24.9069C 479.843 24.6558 479.341 24.5303 478.588 25.409ZM 488.251 27.4176C 488.753 26.2878 490.008 26.4133 490.887 25.6601C 490.636 25.409 490.259 25.5345 490.134 25.0324C 486.745 25.1579 485.365 24.7813 482.604 25.2835C 482.729 24.4047 481.725 25.7856 482.353 25.5345C 482.478 25.1579 482.98 25.6601 483.482 25.2835C 483.482 25.9112 483.482 26.4133 483.482 27.041C 484.11 26.9155 484.361 27.1665 484.235 27.9198L 483.859 28.2964L 483.984 28.7985C 483.859 28.7985 483.608 28.7985 483.482 28.7985C 482.604 29.9283 483.482 31.1837 484.612 31.4348C 484.863 30.8071 485.867 30.4305 486.243 30.8071C 486.118 30.1794 486.369 30.0539 486.494 29.6773C 486.243 29.0496 485.616 29.0496 485.49 28.2964C 486.369 28.0453 486.996 28.7985 487.373 28.2964C 487.373 28.0453 487.624 28.0453 487.624 27.6687L 488 27.7942L 488.251 27.4176ZM 497.539 26.2878C 496.033 25.9112 497.037 27.1665 497.539 26.2878L 497.539 26.2878ZM 473.191 29.1751C 472.187 29.4262 471.811 28.924 471.56 28.2964C 470.43 29.8028 468.046 28.2964 466.791 29.1751C 468.548 30.4305 471.56 32.0625 473.191 30.305C 472.815 30.1794 473.191 29.8028 473.442 29.6773L 473.568 30.0539L 473.944 29.9283C 474.572 30.305 474.697 31.0582 475.576 31.0582C 475.827 29.8028 474.823 29.1751 475.325 28.4219C 474.823 28.4219 474.572 27.9198 473.944 28.1708C 474.07 28.673 473.693 28.673 473.693 29.0496L 473.442 28.924L 473.191 29.1751ZM 492.393 30.9326C 491.514 31.8114 490.008 30.4305 489.255 31.5603C 489.632 31.9369 491.012 31.5603 491.891 32.188C 491.765 31.4348 492.895 31.0582 492.393 30.9326ZM 463.653 34.0711C 464.532 34.3221 465.285 35.9541 466.54 34.9498C 466.54 34.5732 466.54 34.1966 466.54 33.82C 465.536 33.82 464.532 32.5646 463.653 34.0711ZM 484.235 34.3221C 483.482 34.0711 481.474 34.8243 480.972 35.8286C 481.6 36.0797 481.474 37.084 482.102 37.335C 482.855 37.5861 483.608 35.9541 484.737 35.8286C 485.239 36.5818 484.361 37.084 485.239 37.8372C 486.118 37.2095 486.996 36.4563 487.624 35.5775C 487.247 35.703 487.122 35.3264 487.122 34.9498C 485.992 35.2009 485.867 34.9498 484.486 34.9498L 484.612 34.5732L 484.235 34.3221ZM 470.054 36.7073C 470.054 35.7031 469.301 35.452 468.673 35.2009C 468.297 36.3307 469.05 36.7073 470.054 36.7073ZM 498.668 40.4735C 500.676 40.2224 501.304 41.2267 502.182 39.8458C 501.931 40.9756 503.688 40.9756 503.186 41.6033C 503.186 41.4778 502.935 41.2267 502.935 41.6033C 503.563 42.3565 503.437 40.9756 504.316 41.3522C 504.316 40.4735 503.814 40.4735 503.814 39.5947C 504.19 39.3436 504.441 38.8415 504.943 38.7159C 504.943 37.5861 504.441 37.2095 504.19 36.4563C 503.437 37.4606 502.433 36.7073 501.053 36.7073C 500.927 37.8372 500.802 38.0883 501.053 38.967C 500.3 38.5904 500.425 39.4692 500.049 39.5947C 499.672 38.4649 498.543 40.3479 498.417 39.5947C 498.417 39.4692 498.417 39.2181 498.166 39.3436C 498.417 39.8458 498.794 39.8458 498.668 40.4735ZM 492.769 36.9584C 492.644 37.9627 493.899 38.2138 494.15 37.8372C 494.527 36.4563 493.271 36.4563 492.769 36.9584ZM 510.842 40.0968C 510.214 39.0926 509.461 40.599 508.959 40.7245C 509.085 40.4735 509.21 40.2224 508.959 40.0968C 509.085 40.8501 508.081 40.3479 507.955 40.9756C 508.332 40.9756 508.583 40.9756 508.708 41.2267L 508.457 41.2267L 508.457 41.4778C 508.457 41.9799 508.583 42.231 508.959 42.3565C 508.959 42.1054 508.959 41.7288 508.959 41.4778L 509.336 41.6033L 509.21 41.2267C 510.089 41.3522 510.967 41.3522 511.595 41.8544C 511.344 41.8544 511.469 42.1054 511.595 42.1054C 512.097 41.4778 511.595 40.8501 511.093 40.599L 511.218 40.2224L 510.842 40.0968ZM 517.368 42.7331C 517.619 41.9799 517.242 40.9756 517.117 41.6033C 516.991 42.4821 517.493 42.3565 517.368 42.7331ZM 518.874 42.1054C 519.376 42.231 519.376 42.6076 519.125 42.9842C 519.752 43.1097 520.003 41.6033 519.627 41.4778C 519.501 42.1054 518.874 41.7288 518.874 42.1054ZM 521.635 42.9842C 522.011 41.8544 521.509 42.231 521.133 42.3565C 521.509 42.4821 521.384 42.9842 521.635 42.9842ZM 547.488 44.7417C 547.112 44.7417 546.861 44.9928 546.735 45.3694C 547.112 45.3694 547.363 45.1183 547.488 44.7417ZM 550.124 51.6463C 550.375 51.6463 550.249 50.0143 549.873 51.0186C 549.747 51.2697 549.998 51.7718 550.124 51.6463ZM 550.375 64.9532C 550.626 64.9532 550.5 63.3212 550.124 64.3255C 549.998 64.5766 550.124 64.9532 550.375 64.9532ZM 551.253 78.0091C 552.006 77.5069 552.885 78.2601 554.14 78.2601C 553.889 77.5069 554.893 77.0048 554.14 76.7537C 553.261 77.6324 552.383 76.2515 551.504 76.126C 551.379 76.6281 550.877 78.0091 551.253 78.0091ZM 559.537 82.0262C 559.913 82.1518 560.039 82.4028 560.541 82.2773C 560.666 80.8964 559.662 81.1475 559.537 82.0262ZM 551.755 85.1647C 552.257 85.4157 552.759 84.4114 552.257 84.2859C 552.132 84.7881 551.63 84.537 551.755 85.1647ZM 560.917 94.2033C 560.917 94.5799 561.419 94.4544 561.419 94.2033C 560.415 93.9523 561.294 93.0735 560.415 92.6969C 560.541 93.8267 559.411 92.6969 559.286 93.3246C 559.788 93.4501 560.039 95.2076 560.666 94.2033L 560.792 94.3289L 560.917 94.2033ZM 560.29 96.463C 559.286 96.463 560.29 96.2119 560.29 95.8353C 560.039 95.8353 559.788 95.8353 559.537 95.8353C 559.662 96.3375 559.16 96.5885 559.537 96.7141C 559.537 96.5885 559.536 96.3375 559.788 96.463C 559.788 96.7141 560.164 96.8396 560.29 96.463ZM 563.804 101.359C 564.431 100.857 563.427 100.355 563.302 101.108C 563.553 101.108 563.553 101.359 563.804 101.359ZM 560.29 103.744C 560.29 103.116 561.796 102.991 561.043 102.238C 560.415 102.238 559.411 101.861 558.156 101.987C 558.156 102.74 558.031 103.744 558.658 103.744C 559.286 103.619 560.29 102.865 560.29 103.744ZM 555.018 103.744C 554.516 103.116 555.395 103.619 555.52 103.995C 555.52 103.493 556.273 103.744 556.273 103.116C 555.897 103.116 556.148 102.363 555.771 102.238C 555.646 103.116 554.14 102.363 554.14 103.368C 554.642 102.991 554.893 104.497 555.018 103.744ZM 553.889 103.116C 552.759 102.363 553.261 104.121 553.889 103.116L 553.889 103.116ZM 548.241 104.246C 547.99 104.246 547.865 103.87 547.488 103.995C 547.112 104.748 548.241 104.874 548.241 104.246ZM 544.853 104.623C 544.351 103.87 543.221 105.251 544.602 104.623C 544.351 104.623 545.104 104.874 544.853 104.623ZM 569.2 110.398C 569.075 110.147 568.071 109.644 568.196 110.649C 568.824 110.649 568.698 110.147 569.2 110.649L 569.075 111.025L 569.451 110.9C 569.451 111.151 569.702 111.151 569.953 111.151C 570.204 111.151 570.204 111.025 570.204 110.9C 569.953 110.774 569.828 110.398 569.451 110.272L 569.326 109.895L 569.2 110.398ZM 553.387 112.406C 553.763 112.406 553.889 112.532 554.14 112.657C 554.265 112.155 554.391 111.779 554.14 111.527C 554.14 112.155 553.387 111.779 553.387 112.406ZM 555.018 114.415C 555.269 113.662 553.638 114.289 554.516 114.415C 555.018 114.415 555.646 114.917 555.018 114.415ZM 558.658 122.198C 559.035 122.826 559.286 122.951 559.411 123.328C 559.913 122.324 559.662 123.077 559.913 123.328C 560.29 122.449 561.043 123.328 561.294 122.7C 560.666 122.951 560.792 122.073 560.29 122.073C 560.29 122.449 560.29 122.575 560.039 122.7C 560.164 122.073 559.537 122.324 559.537 121.821C 559.913 121.696 559.537 121.57 559.537 121.194C 559.913 121.194 560.164 120.943 560.29 120.566C 560.039 120.315 559.662 120.064 559.537 120.566C 560.039 121.068 559.411 120.566 559.034 120.566C 559.16 121.319 558.156 120.817 558.282 121.696L 558.156 122.073L 558.658 122.198ZM 569.702 121.068C 569.075 121.445 568.573 120.19 568.322 121.068C 568.447 121.194 568.573 121.319 568.573 121.696C 569.326 121.822 570.581 121.068 569.953 120.566C 570.204 121.194 568.698 120.19 569.451 120.817C 569.577 120.817 569.702 120.817 569.702 121.068ZM 549.622 123.328C 550.249 123.202 550.5 122.575 550.751 122.198C 550.751 122.575 550.751 122.7 551.002 122.826C 551.002 121.445 550.751 121.696 549.998 122.575C 549.998 122.324 549.998 121.947 549.998 121.696C 549.496 121.696 549.245 121.947 549.245 122.575L 548.869 122.449L 548.743 122.826C 548.492 122.826 548.367 122.826 548.241 122.575C 548.618 122.449 548.241 122.324 547.99 122.324L 547.614 122.198L 547.237 122.324C 546.735 123.077 545.48 122.826 544.602 123.202C 544.853 122.575 544.225 121.821 544.1 122.575C 544.476 122.7 544.1 122.826 544.1 123.202C 545.104 123.83 545.982 123.077 546.484 123.453C 546.233 123.453 546.359 123.705 546.484 123.705C 547.237 122.198 547.488 122.7 547.488 122.7L 547.865 122.575C 547.865 123.328 548.492 123.579 548.869 123.202L 548.994 123.579L 549.622 123.328ZM 554.391 122.449C 554.391 122.324 554.14 122.073 554.14 122.449C 555.395 123.328 554.516 121.068 555.52 122.449C 555.646 121.696 555.018 121.947 554.767 121.57C 554.642 121.947 554.516 122.324 554.391 122.449ZM 542.468 123.328C 542.217 122.198 540.335 122.7 540.586 123.328C 541.464 122.575 540.335 124.081 541.59 123.956C 540.962 122.073 543.221 124.207 542.468 123.328ZM 542.719 135.254C 543.472 134.877 544.351 134.626 544.602 133.748C 544.225 133.371 543.723 131.864 543.472 133.12C 543.723 133.12 543.849 133.245 543.974 133.371C 543.347 133.12 543.472 133.999 542.97 133.999C 542.97 133.622 542.719 133.873 542.719 133.999L 542.343 133.873L 542.468 134.25C 542.217 134.25 542.092 134.375 541.966 134.501C 542.217 134.626 542.343 135.254 542.468 134.752L 542.594 134.877L 542.719 135.254ZM 535.817 135.756C 535.817 135.38 536.193 135.505 536.57 135.505C 536.57 135.128 536.57 134.626 536.319 134.626C 536.319 135.003 535.064 135.38 535.817 135.756ZM 529.918 154.336C 529.918 153.959 530.169 154.21 530.42 154.336C 530.295 153.708 530.797 153.708 530.922 153.457C 530.044 153.206 530.044 153.457 529.542 153.206C 529.542 153.708 529.667 154.085 529.918 154.336ZM 504.19 159.483C 505.069 159.859 505.445 158.478 504.692 158.353C 504.692 158.855 505.069 159.106 504.692 159.232C 504.567 158.98 504.441 158.729 504.19 158.604L 503.939 158.604L 503.939 158.855C 503.688 158.729 503.563 158.478 503.437 158.855L 503.061 158.729L 502.935 159.106C 502.182 159.734 502.684 159.357 503.186 159.734L 503.312 160.236L 503.688 160.612C 503.688 160.989 503.688 161.115 503.437 161.24C 503.437 160.864 503.186 161.115 503.186 161.24C 503.563 161.366 503.186 161.491 503.186 161.868C 504.692 162.244 503.563 164.253 505.32 164.504C 505.32 163.751 504.943 163.876 505.32 163.374L 505.696 163.5L 505.571 163.123C 505.696 162.119 506.198 164.127 506.324 163.123C 504.818 161.993 505.696 161.366 503.688 160.864L 503.814 160.487L 503.688 160.11C 503.688 159.859 503.814 159.859 503.939 159.859L 504.065 160.236L 504.19 159.483ZM 501.806 159.232C 501.806 159.483 501.806 159.608 501.806 159.859C 502.433 160.361 502.559 158.855 502.057 158.98C 502.057 159.106 502.057 159.232 501.806 159.232ZM 499.17 159.483C 498.794 160.236 497.915 158.98 498.417 160.11C 497.664 159.357 496.786 161.366 497.413 162.119C 497.79 161.742 499.17 162.37 499.547 161.24C 499.547 161.617 499.547 161.742 499.798 161.868C 499.923 161.366 499.547 161.366 499.547 160.989C 499.045 161.115 498.417 161.491 498.417 160.361C 498.668 160.361 498.919 160.361 499.17 160.361L 499.296 160.612L 499.421 160.361C 499.923 160.361 500.174 160.11 500.174 159.483C 499.798 159.483 499.547 159.483 499.421 159.734L 499.296 159.608L 499.17 159.483ZM 521.258 162.37C 521.133 162.37 521.007 162.37 521.007 162.621C 521.76 162.37 521.509 163.374 522.011 163.5C 522.011 163.249 522.011 162.872 522.262 162.872C 522.262 162.998 522.262 163.249 522.513 163.123C 522.262 161.993 522.764 161.868 522.011 161.366C 522.262 162.747 521.007 161.24 521.007 161.993C 521.133 162.119 521.258 162.119 521.258 162.37ZM 516.489 162.998C 516.489 163.123 516.489 163.374 516.238 163.249C 516.615 161.993 514.858 163.249 514.858 162.37C 514.983 162.37 515.109 162.37 515.109 162.119C 514.481 161.993 514.481 162.747 514.356 163.249C 514.732 163.374 515.234 164.755 515.736 163.876C 515.485 163.751 515.485 163.123 515.736 162.998C 515.987 163.5 516.991 163.5 516.489 162.998ZM 495.154 163.5C 495.531 163.249 495.907 162.998 496.158 162.621C 495.531 162.621 495.405 163.123 495.029 163.249L 494.652 163.249L 494.652 163.5C 494.527 163.249 493.397 162.621 493.899 163.249C 494.526 163.249 494.025 164.253 493.899 164.379C 495.029 164.002 494.527 165.383 494.15 165.508C 495.154 165.634 496.66 165.006 497.915 166.136C 497.79 165.508 497.915 165.257 498.417 165.257L 498.668 165.257L 498.668 165.006C 498.919 165.383 499.045 165.132 499.421 165.006L 499.798 165.132L 499.672 164.755C 500.802 165.257 500.802 164.504 499.672 164.504L 499.296 164.379L 499.421 164.755C 499.045 164.755 498.794 164.253 498.668 164.755L 498.417 164.504L 498.543 164.881C 497.413 165.508 496.786 164.128 495.405 165.132C 495.28 164.63 494.778 164.63 494.903 163.625L 495.28 163.751L 495.154 163.5ZM 490.008 165.257C 489.883 166.513 488.628 165.006 488.628 166.136C 489.13 166.262 489.13 166.889 489.632 167.015C 489.632 166.136 490.51 166.638 491.012 165.885C 490.887 165.759 490.51 165.885 490.51 165.634C 490.636 165.634 490.761 165.383 490.51 165.383C 490.385 165.634 490.134 165.383 490.008 165.257ZM 227.96 173.292C 229.592 174.547 230.094 172.036 231.223 173.292C 231.976 171.534 230.847 170.279 230.972 168.396C 229.215 169.023 228.588 171.158 227.96 173.292ZM 239.883 170.781C 240.009 170.781 240.009 170.781 240.134 170.781C 239.381 170.028 239.883 169.149 239.13 168.772C 238.251 169.777 237.498 170.781 237.247 172.538C 238.126 172.915 238.753 173.794 240.134 173.668C 240.762 172.915 239.507 172.664 239.632 171.66L 240.009 171.283L 239.883 170.781ZM 218.046 169.651C 218.924 170.655 218.422 171.66 218.297 173.166C 220.556 173.794 223.693 174.422 226.078 173.794C 225.952 172.287 224.446 172.036 223.693 172.915C 223.693 172.413 223.693 172.036 223.944 171.785C 222.689 171.283 222.689 173.166 222.062 172.413C 221.936 171.534 222.689 171.911 222.564 170.907C 220.932 170.028 219.928 169.149 218.046 169.651ZM 277.91 172.79C 278.412 172.162 279.04 171.785 279.291 170.781C 278.663 170.153 278.287 169.149 277.91 169.902C 279.291 170.655 277.408 172.162 277.91 172.79ZM 316.063 170.781C 316.439 170.907 315.937 171.032 315.812 171.409C 316.941 171.534 318.573 172.036 319.577 170.781C 318.824 171.032 319.2 169.777 318.573 169.902C 318.196 171.158 316.314 169.651 316.063 170.781ZM 305.646 170.153C 305.646 170.53 305.395 170.53 305.395 171.032C 306.399 171.409 306.274 171.283 306.148 172.79C 306.776 173.166 306.776 172.79 307.78 172.79C 307.278 171.66 307.278 171.409 308.282 171.032C 308.156 171.032 308.031 170.781 308.031 170.404C 306.148 169.651 306.148 171.785 305.646 170.153ZM 293.849 173.166L 293.974 172.79C 293.849 171.911 294.351 171.911 294.225 171.032C 292.468 170.028 291.339 171.409 289.958 171.283C 289.958 172.162 290.209 173.292 289.456 173.292L 289.331 172.915L 288.954 172.79C 289.08 170.028 287.95 172.036 286.821 171.283C 286.821 172.287 286.57 172.915 286.068 173.292C 287.072 173.543 288.076 174.17 288.954 173.292L 289.205 173.417L 289.456 173.543C 290.711 174.045 292.845 174.422 293.472 172.915L 293.849 173.166ZM 428.261 172.162C 428.261 171.785 428.638 171.911 428.763 171.534C 428.512 171.158 427.383 171.032 427.383 171.785C 427.885 172.162 428.261 171.032 428.387 171.785C 428.01 171.911 427.885 172.162 428.261 172.162ZM 206.876 173.041C 207.504 173.417 209.261 173.166 208.759 171.911C 208.633 173.794 207.378 171.66 206.876 173.041ZM 276.781 173.041C 276.906 172.79 277.032 172.538 277.032 172.162C 276.655 171.66 276.404 172.538 275.902 171.911C 275.777 172.413 276.153 172.413 276.153 172.79L 275.777 172.915L 276.153 173.041C 276.028 173.417 275.149 174.17 275.902 174.547C 275.902 174.17 276.279 174.296 276.655 174.296C 276.53 173.794 276.906 173.794 276.906 173.417L 277.283 173.292L 276.781 173.041ZM 273.392 172.79C 273.267 173.794 273.769 173.794 274.396 173.919C 274.396 173.166 274.271 172.664 273.894 172.413C 273.894 172.664 273.769 172.79 273.392 172.79Z"/>
</defs>
</svg>
